<svg xmlns="http://www.w3.org/2000/svg" width="1083.5" height="601.6" viewBox="0 0 1083.5 601.6"><defs><style>.cls-1{fill:#f69885;}.cls-2{fill:#f47c68;}.cls-3{fill:#eb6855;}.cls-4{fill:#fff3e7;}.cls-5{fill:#995e4c;}.cls-6{fill:#7e4435;}.cls-7{fill:#8b5446;}.cls-8{fill:#fff;}.cls-9{fill:#f9b733;}.cls-10{fill:#e65d5b;}.cls-11{fill:#ce4144;}.cls-12{fill:#a6503d;}.cls-13{fill:#723d37;}.cls-14{fill:#e18a74;}.cls-15{fill:#f7997d;}.cls-16{fill:#aa5d49;}.cls-17{fill:#f28c27;}.cls-18{fill:#4f4671;}.cls-19{fill:#342a4e;}.cls-20,.cls-21{fill:#231f20;}.cls-21{font-size:52px;font-family:AnothershabbyTrial-Bold, Another shabby;font-weight:700;}</style></defs><g id="Layer_2" data-name="Layer 2"><g id="Capa_1" data-name="Capa 1"><path class="cls-1" d="M88.3,601.3,102,487.5S90.1,468.4,82.4,452a83.3,83.3,0,0,1-5.9-15c-3.2-13.4-2.3-33.7-2-39.6.1-1.1.1-1.7.1-1.7l71.2,8.9-2.2,60.9-.5,12.7,5.3,123.1Z"/><path class="cls-2" d="M145.8,404.6l-2.2,60.9c-.1.1-.1.3-.2.4a24.3,24.3,0,0,1-32.8,10c-11-5.9-20.4-14.4-28.2-23.9a83.3,83.3,0,0,1-5.9-15c-3.2-13.4-2.3-33.7-2-39.6.1-1.1.1-1.7.1-1.7Z"/><path class="cls-3" d="M137,436.4H82.7a1.1,1.1,0,0,1,0-2.2H137a1.1,1.1,0,0,1,0,2.2Z"/><path class="cls-4" d="M0,429.7H207v-271L.4,157.7S3.6,429.7,0,429.7Z"/><path class="cls-1" d="M104.2,482.2a12.3,12.3,0,0,0,18.8-2.8c3.4-5.7,2.9-11.9-.8-19.8-6.4-13.8-15.8-17.7-15.8-17.7s8.8-16,5.1-26.5-8.5-6.3-9.5-3c-1.3,4.8-9.2,22.1-10.6,30.3C88.4,459.2,92.4,471.6,104.2,482.2Z"/><path class="cls-3" d="M105.1,448.7h-.2a1.1,1.1,0,0,1-.8-1.4c.7-2.8,1.7-5.4,2.6-8s1.8-5.2,2.5-7.9a48.4,48.4,0,0,0,1.7-12.5,11.6,11.6,0,0,0-4.9-9.1,1.1,1.1,0,0,1-.2-1.6,1.1,1.1,0,0,1,1.5-.2,13.8,13.8,0,0,1,5.7,10.8,45.4,45.4,0,0,1-1.7,13.2,83.4,83.4,0,0,1-2.6,8c-.8,2.6-1.8,5.2-2.5,7.9A1.1,1.1,0,0,1,105.1,448.7Z"/><path class="cls-3" d="M119.3,484.6a1.3,1.3,0,0,1-.9-.4,1.1,1.1,0,0,1,.2-1.6,14.2,14.2,0,0,0,5.3-9.6,25.6,25.6,0,0,0-1.6-11.5,31.9,31.9,0,0,0-6.1-10.9,19.3,19.3,0,0,0-9.9-6.1,1.1,1.1,0,0,1-.8-1.4,1.2,1.2,0,0,1,1.4-.7,21.7,21.7,0,0,1,10.9,6.7,34,34,0,0,1,6.6,11.7,26.6,26.6,0,0,1,1.6,12.4,16.1,16.1,0,0,1-6.1,11.2Z"/><path class="cls-3" d="M124.2,491a13.9,13.9,0,0,1-5.7-1.2,1,1,0,0,1-.5-1.4,1.1,1.1,0,0,1,1.4-.6,11.4,11.4,0,0,0,9.4.1,1.1,1.1,0,0,1,1.5.5,1.2,1.2,0,0,1-.6,1.5A12.9,12.9,0,0,1,124.2,491Z"/><path class="cls-3" d="M125.5,495.8a9.8,9.8,0,0,1-4.1-.9,1.1,1.1,0,0,1-.5-1.5,1.1,1.1,0,0,1,1.5-.5,7.9,7.9,0,0,0,4.8.6,1.1,1.1,0,0,1,1.3.8,1.2,1.2,0,0,1-.8,1.3A8.2,8.2,0,0,1,125.5,495.8Z"/><path class="cls-5" d="M646.3,600c-1.1-88.7-2.9-176.4-2.9-176.4l-38-7.6-45,184Z"/><path class="cls-6" d="M586.6,590.6a1.1,1.1,0,0,1-.7-.3,17.1,17.1,0,0,0-13.8-3.3,1.3,1.3,0,0,1-1.5-1,1.2,1.2,0,0,1,1-1.4,19.5,19.5,0,0,1,15.8,3.8,1.2,1.2,0,0,1,.2,1.7A1.2,1.2,0,0,1,586.6,590.6Z"/><path class="cls-5" d="M601.6,413.9a22.4,22.4,0,0,0,2.8,9.7c7.3,12.8,26.3,17.6,37,9,18-14.6,21.5-39.1,21.5-39.1-.9-12.6-11.3-18.5-24.4-24.9l-1-.4C624,361.7,600.3,393.3,601.6,413.9Z"/><path class="cls-7" d="M601.6,413.5a22.4,22.4,0,0,0,2.8,9.7H638a5.8,5.8,0,0,0,5.7-5.4l.9-18.1,10.8-10.5-8.9-6.7-8-14.3-1-.4C624,361.3,600.3,392.9,601.6,413.5Z"/><path class="cls-5" d="M396.3,600l-45-184-38,7.6s-1.8,87.7-2.9,176.4Z"/><path class="cls-6" d="M362.6,589.3a1.6,1.6,0,0,1-1.1-.5,1.3,1.3,0,0,1,.4-1.7,18,18,0,0,1,18.2-1.3,1.3,1.3,0,0,1,.5,1.7,1.2,1.2,0,0,1-1.6.5,16,16,0,0,0-15.7,1.1A1.1,1.1,0,0,1,362.6,589.3Z"/><path class="cls-5" d="M355.1,413.9a21.2,21.2,0,0,1-2.9,9.7c-7.2,12.8-26.2,17.6-36.9,9-18-14.6-21.5-39.1-21.5-39.1.8-12.6,11.3-18.5,24.4-24.9l1-.4C332.7,361.7,356.4,393.3,355.1,413.9Z"/><path class="cls-7" d="M355.1,413.5a21.2,21.2,0,0,1-2.9,9.7H318.7a5.6,5.6,0,0,1-5.7-5.4l-.9-18.1-10.8-10.5,8.9-6.7,8-14.3,1-.4C332.7,361.3,356.4,392.9,355.1,413.5Z"/><rect class="cls-8" x="318.8" y="230.5" width="318.2" height="186.02"/><path class="cls-5" d="M331.8,381.3s4.9.9,6-3.1c2.8-10.1-10.1-19-18.8-22.4v-7.3s11.5,10.8,13.9,5.3-4.5-13.1-11.5-17.7-11.6-1.6-12.8,1.5-1.7,8.6,5.2,18.6c-3.6,1.4-6.4,3.5-5.7,11.4-5.5,1.2-18.6,10.9-13.8,28.1h.2a22.7,22.7,0,0,1,23,2.7c2.1,1.7,4.2,3,5.4,3.2,3.5.6,7.1-.7,6.7-6.4C334.5,393,336.3,387.7,331.8,381.3Z"/><path class="cls-6" d="M323.8,403.4l-2.1-.2a19.1,19.1,0,0,1-7.1-3.9,1.2,1.2,0,0,1,1.7-1.7,17.4,17.4,0,0,0,6,3.2c1.6.4,3.9.1,4.6-1.1a5.8,5.8,0,0,0,.6-5.1c-1.5-4.7-8.3-9.8-20.3-15l-1.1-.5a1.2,1.2,0,0,1-.6-1.6,1.2,1.2,0,0,1,1.7-.6l1,.4c4.7,2.1,19,8.4,21.7,16.6a8.5,8.5,0,0,1-.9,7.1C328,402.7,325.9,403.4,323.8,403.4Z"/><path class="cls-6" d="M313.7,356.7a1.1,1.1,0,0,1-.9-.4,23.4,23.4,0,0,1-6.4-10.4c-1.3-4.4-.2-10.4,4.5-12.7s8.3-.4,10.6.8c6.9,3.4,13.6,10.3,12.9,18.2a4.7,4.7,0,0,1-3.5,4,7.4,7.4,0,0,1-5-.7,26,26,0,0,1-3.6-2.7l-6.4-5.7a1.2,1.2,0,0,1-.1-1.7,1.3,1.3,0,0,1,1.8-.1l6.3,5.6a17.2,17.2,0,0,0,3.1,2.4,4.3,4.3,0,0,0,3.2.5A2.2,2.2,0,0,0,332,352c.5-6.7-5.4-12.8-11.6-15.8-1.9-1-5.5-2.3-8.4-.8s-4.3,6.3-3.3,9.8,3,6.4,5.9,9.5a1.2,1.2,0,0,1-.1,1.7A1.1,1.1,0,0,1,313.7,356.7Z"/><path class="cls-6" d="M329.6,396.4a1.2,1.2,0,0,1-1-.6,1.3,1.3,0,0,1,.3-1.7c2.3-1.5,2.9-2.2,3.5-4.6a10,10,0,0,0-1.2-7.4,19.7,19.7,0,0,0-5.5-5.8,37.9,37.9,0,0,0-13.9-6.6,1.3,1.3,0,0,1-1-1.5,1.4,1.4,0,0,1,1.5-.9,40.8,40.8,0,0,1,14.9,7,23.1,23.1,0,0,1,6.1,6.6,12.7,12.7,0,0,1,1.5,9.2c-.8,3.1-1.8,4.2-4.5,6.1Z"/><path class="cls-6" d="M333.6,383.9a1.4,1.4,0,0,1-1.2-1,1.4,1.4,0,0,1,.9-1.5c2-.4,2.6-1.7,2.6-5.2s-1.1-5-3.2-7.9A32.6,32.6,0,0,0,317.6,357a1.3,1.3,0,0,1-.7-1.6,1.2,1.2,0,0,1,1.5-.8,36,36,0,0,1,16.3,12.2c2.4,3.4,3.6,6.4,3.6,9.4s.1,6.5-4.4,7.6Z"/><path class="cls-5" d="M624.9,381.3s-4.9.9-6-3.1c-2.8-10.1,10-19,18.7-22.4v-7.3s-11.4,10.8-13.8,5.3,4.5-13.1,11.5-17.7,11.6-1.6,12.8,1.5,1.7,8.6-5.2,18.6c3.6,1.4,6.4,3.5,5.7,11.4,5.5,1.2,18.6,10.9,13.8,28.1h-.2a22.7,22.7,0,0,0-23,2.7c-2.1,1.7-4.2,3-5.4,3.2-3.5.6-7.1-.7-6.7-6.4C622.2,393,620.4,387.7,624.9,381.3Z"/><path class="cls-6" d="M632.9,403.4c-2.1,0-4.2-.7-5.2-2.4a8.2,8.2,0,0,1-.9-7.1c2.7-8.2,17-14.5,21.7-16.6l1-.4a1.2,1.2,0,0,1,1.7.6,1.2,1.2,0,0,1-.6,1.6l-1.1.5c-12,5.2-18.8,10.3-20.3,15a5.8,5.8,0,0,0,.6,5.1c.7,1.2,2.9,1.5,4.6,1.1a17.4,17.4,0,0,0,6-3.2,1.2,1.2,0,0,1,1.7,1.7,19.1,19.1,0,0,1-7.1,3.9Z"/><path class="cls-6" d="M643,356.7a1.1,1.1,0,0,1-.8-.3,1.2,1.2,0,0,1-.1-1.7c2.9-3.1,4.7-5.5,5.8-9.5s.2-8.2-3.2-9.8-6.5-.2-8.4.8c-6.2,3-12.1,9.1-11.6,15.8a2.2,2.2,0,0,0,1.8,1.8,4.3,4.3,0,0,0,3.2-.5,17.2,17.2,0,0,0,3.1-2.4l6.3-5.6a1.2,1.2,0,0,1,1.7.1,1.1,1.1,0,0,1-.1,1.7l-6.3,5.7a26,26,0,0,1-3.6,2.7,7.4,7.4,0,0,1-5,.7,4.7,4.7,0,0,1-3.5-4c-.7-7.9,6-14.8,12.9-18.2,2.3-1.2,6.7-2.8,10.6-.8s5.8,8.2,4.5,12.7a23.4,23.4,0,0,1-6.4,10.4A1.1,1.1,0,0,1,643,356.7Z"/><path class="cls-6" d="M627.1,396.4l-.7-.2c-2.7-1.9-3.7-3-4.5-6.1a12.3,12.3,0,0,1,1.5-9.2,23.1,23.1,0,0,1,6.1-6.6,40.8,40.8,0,0,1,14.9-7,1.2,1.2,0,0,1,1.4.9,1.1,1.1,0,0,1-.9,1.5,37.9,37.9,0,0,0-13.9,6.6,18.5,18.5,0,0,0-5.5,5.8,10,10,0,0,0-1.2,7.4c.6,2.4,1.2,3.1,3.5,4.6a1.3,1.3,0,0,1,.3,1.7A1.4,1.4,0,0,1,627.1,396.4Z"/><path class="cls-6" d="M623.3,383H623c-4-.9-6.2-5.3-5.9-8.9s1.8-6.2,4.7-9.4a36.6,36.6,0,0,1,16.6-10.5,1.3,1.3,0,0,1,1.6.8,1.2,1.2,0,0,1-.8,1.5,34.6,34.6,0,0,0-15.5,9.8c-2.6,2.8-4,5.4-4.2,7.9s1.4,5.8,4,6.3a1.3,1.3,0,0,1,1,1.5A1.3,1.3,0,0,1,623.3,383Z"/><path class="cls-9" d="M307.4,443.4c1.8-.6,50.3-13.2,50.3-13.2l1.2,4.8s-50.3,17.4-50.3,15.6A58.1,58.1,0,0,0,307.4,443.4Z"/><path class="cls-9" d="M307.4,455.3l52.4-17.2,1.2,4.8s-52.4,21.4-52.4,19.6A58.1,58.1,0,0,0,307.4,455.3Z"/><path class="cls-10" d="M736.4,350.5s-1.6,11.7,10.1,26,24,30.6,19.9,49.9-4,35.7,7.7,48.5,13.2,31.1,5.1,58.1,19.4,36.7,16.3,68.3H634.9S631.8,586,639,559s16.8-36.2,9.7-54.6-2.1-40.8,6.1-55,15.8-24.5,12.7-42.3-1.4-32.5,14.4-48.1S736.4,350.5,736.4,350.5Z"/><path class="cls-2" d="M714.1,340.6H689.8s-16.4-10.8-13.5-28.4,13.5-35,28-34.7,33.6,14.1,34.3,28.1S733,340.3,714.1,340.6Z"/><path class="cls-11" d="M684.6,339l49.3-2.2a3.2,3.2,0,0,1,3.4,3.3l-.3,16.8L681.8,359l-.3-16.7A3.3,3.3,0,0,1,684.6,339Z"/><polygon class="cls-12" points="689.4 461.1 707.1 461.1 707.5 214.3 707.8 12.5 707.8 0 690.2 0 690.2 12.5 689.8 214 689.4 461.1"/><polygon class="cls-13" points="689.8 204.3 690.2 12.5 707.8 12.5 707.5 204.3 689.8 204.3"/><path class="cls-1" d="M708.2,273.2c.4-3.6-7.1-5.5-12.6-6.1s-22.8-5.7-27.5-1-3.9,12,.6,14c-3.9,6.4-3.7,12.5,2.2,13.9-2.4,5.1-2.2,14.7,4.7,15.1-2.4,8.7,1.8,12.9,6.9,13.6,10,1.4,21-1.6,23.8-4.7s1.1-8.7-4.8-10c0,0,6.1-.2,6.1-6.5,0-4.2-5.5-5.9-5.5-5.9s6.1-2,5.1-9.5C710,281.4,708.2,273.2,708.2,273.2Z"/><path class="cls-1" d="M726.8,332.4a16,16,0,0,0,4-2.8c6.8-6.5,8.5-18.2,7.7-27.2-1.8-19.2-12.5-24.4-17.4-26.8s-28.7-5.2-32.4-2.5-2.4,10.1,3.7,13.5,16.5,1.5,21,4.5,5.9,6.2,5.9,6.2-7.4,3.3-9.2,8.8c-3,8.9-4.2,25.8,8.4,27.8A14.2,14.2,0,0,0,726.8,332.4Z"/><polygon class="cls-4" points="836 26.4 510.5 26.4 507.8 194.2 836.7 194.2 836 26.4"/><path class="cls-3" d="M684.1,310.6c-2.6,0-5.2-.1-7.7-.3a1,1,0,0,1-1-1.1,1.1,1.1,0,0,1,1.2-1,119.4,119.4,0,0,0,24.7-1.1,1,1,0,0,1,1.2.9,1,1,0,0,1-.9,1.2A109.8,109.8,0,0,1,684.1,310.6Z"/><path class="cls-3" d="M693.8,296.6a161.8,161.8,0,0,1-20.9-1.4,1.1,1.1,0,0,1-.9-1.3,1,1,0,0,1,1.2-.9,153,153,0,0,0,27.9,1.2,1,1,0,0,1,1.1,1,1,1,0,0,1-1,1.2Z"/><path class="cls-3" d="M721.1,302.8a1,1,0,0,1-1-.8,16.6,16.6,0,0,0-8.7-9.7,36.1,36.1,0,0,0-8.3-2.1h-.6a40.6,40.6,0,0,1-8.4-1.8,14.9,14.9,0,0,1-7.5-6c-1.7-3.2-1.5-7.2.6-9.7a1.1,1.1,0,0,1,1.5-.2,1.1,1.1,0,0,1,.2,1.6,6.5,6.5,0,0,0-.3,7.2,11.6,11.6,0,0,0,6.3,5,34.9,34.9,0,0,0,7.9,1.8h.6a31.4,31.4,0,0,1,9,2.3,18.3,18.3,0,0,1,9.7,10.9,1.1,1.1,0,0,1-.7,1.4Z"/><path class="cls-3" d="M687.6,283h-.1l-15.7-1.8a1.1,1.1,0,1,1,.2-2.2l15.8,1.8a1.1,1.1,0,0,1-.2,2.2Z"/><path class="cls-11" d="M666.2,489.6a1.3,1.3,0,0,1-1-.4,15,15,0,0,1-2.6-13.8,1.3,1.3,0,1,1,2.4.8,12,12,0,0,0,2.1,11.4,1.2,1.2,0,0,1-.1,1.7A1.3,1.3,0,0,1,666.2,489.6Z"/><path class="cls-11" d="M671.9,487.3a.9.9,0,0,1-.8-.4,9.4,9.4,0,0,1-2.6-9.5,1.2,1.2,0,0,1,2.3.7,7.2,7.2,0,0,0,1.9,7,1.3,1.3,0,0,1,.1,1.8A1.5,1.5,0,0,1,671.9,487.3Z"/><path class="cls-11" d="M741.6,410.3h-.1a1.2,1.2,0,0,1-1.1-1.4,16.6,16.6,0,0,0-3.6-12.1,1.4,1.4,0,0,1,.2-1.8,1.2,1.2,0,0,1,1.7.2,19.2,19.2,0,0,1,4.2,14A1.3,1.3,0,0,1,741.6,410.3Z"/><path class="cls-11" d="M748.4,406.4h0a1.2,1.2,0,0,1-1.2-1.3,12.2,12.2,0,0,0-2.2-7.4,1.2,1.2,0,0,1,.3-1.7,1.2,1.2,0,0,1,1.7.3,14.8,14.8,0,0,1,2.7,8.9A1.2,1.2,0,0,1,748.4,406.4Z"/><path class="cls-11" d="M726.6,527.8a1.1,1.1,0,0,1-1-.6,1.2,1.2,0,0,1,.4-1.7,13.3,13.3,0,0,0,5.7-13.6,1.2,1.2,0,0,1,.9-1.5,1.3,1.3,0,0,1,1.5.9,15.8,15.8,0,0,1-6.8,16.3Z"/><path class="cls-11" d="M733.4,529.3a1.1,1.1,0,0,1-1-.6,1.3,1.3,0,0,1,.4-1.7c3.4-1.8,5.2-7.2,4.6-10.8a1.2,1.2,0,0,1,1-1.4,1.2,1.2,0,0,1,1.4,1c.7,4.5-1.3,10.9-5.8,13.4Z"/><path class="cls-11" d="M671,570.9a1.4,1.4,0,0,1-1-.5,21.9,21.9,0,0,1-4-16.4,1.2,1.2,0,0,1,1.4-1.1,1.4,1.4,0,0,1,1,1.5,19.8,19.8,0,0,0,3.6,14.5,1.2,1.2,0,0,1-.2,1.7A1.3,1.3,0,0,1,671,570.9Z"/><path class="cls-11" d="M675.7,567.1a1.2,1.2,0,0,1-.9-.4c-2.2-2.4-3.6-7.3-2.2-10.3a1.2,1.2,0,0,1,1.6-.6,1.3,1.3,0,0,1,.6,1.7c-.8,1.8.1,5.7,1.8,7.5a1.3,1.3,0,0,1,0,1.8A1.6,1.6,0,0,1,675.7,567.1Z"/><path class="cls-11" d="M753.7,573.8a1.1,1.1,0,0,1-.8-.3,1.4,1.4,0,0,1-.1-1.8,11.9,11.9,0,0,0,2.6-11.8,1.3,1.3,0,0,1,.8-1.6,1.4,1.4,0,0,1,1.6.8,14.7,14.7,0,0,1-3.2,14.3A1,1,0,0,1,753.7,573.8Z"/><path class="cls-11" d="M761.5,572.3a1.2,1.2,0,0,1-.8-.2,1.3,1.3,0,0,1-.1-1.8,10.6,10.6,0,0,0,2-9.1,1.4,1.4,0,0,1,.9-1.5,1.3,1.3,0,0,1,1.5,1,13,13,0,0,1-2.5,11.2A1.3,1.3,0,0,1,761.5,572.3Z"/><path class="cls-11" d="M678.3,391.4a1.4,1.4,0,0,1-1.1-.6,14.8,14.8,0,0,1-.5-13.7,1.2,1.2,0,1,1,2.2,1.1,12.2,12.2,0,0,0,.5,11.3,1.3,1.3,0,0,1-.5,1.7Z"/><path class="cls-14" d="M898.9,437s14.8-15.9,29.8-20.5,24.9-1.5,28.8-3.1,7-2.8,9.2-.2-.5,11.8-9.2,13.5S898.9,437,898.9,437Z"/><path class="cls-14" d="M1012,362c0,.4-8.3-25.8-27-37.2s-28.8-3.5-36.1-1.7-15.6-3.9-19.3-1.3-1.1,11.8,10.4,15.7S1010.5,354.9,1012,362Z"/><polygon class="cls-12" points="935 546.8 957.7 546.8 958.3 300 958.7 98.3 958.7 85.8 936 85.8 936 98.3 935.6 299.7 935 546.8"/><polygon class="cls-13" points="935.6 290 936 98.3 958.7 98.3 958.3 290 935.6 290"/><polygon class="cls-8" points="1068.2 109.2 816.1 109.2 814.1 277.1 1068.7 277.1 1068.2 109.2"/><path class="cls-15" d="M748.8,601.2S888,433.5,916.7,424.2c17.4-6.5,50.2-4.9,53.9,1.6,1.3,2.4,0,10.1-5.5,10.8,0,0,4.4,4.1,3.7,8.1s-4.6,6-4.6,6a8.2,8.2,0,0,1,2.6,5.1c1.1,5.6-3.2,7.4-3.2,7.4s6.9,1.2,6.5,10.9c-.3,5.7-4.1,7.9-12.2,7.9v-5.3s-24.9,4.7-36.4.2c-13.8,21-72.7,124.7-72.7,124.7Z"/><path class="cls-16" d="M966.1,438a1.3,1.3,0,0,1-1.2-1,1.3,1.3,0,0,1,1-1.5,4.8,4.8,0,0,0,3.6-3.1,6.7,6.7,0,0,0-.8-5.9c-2.2-2.7-8.7-3.7-12.5-4.3h-.6c-16.1-2.5-29.1-2.3-43.9,7a1.2,1.2,0,0,1-1.7-.4,1.3,1.3,0,0,1,.4-1.7c15.5-9.7,28.9-10,45.6-7.3h.6c4.5.7,11.2,1.7,14,5.2a8.8,8.8,0,0,1,1.2,8.2,7,7,0,0,1-5.4,4.7Z"/><path class="cls-16" d="M937.4,479.2a102,102,0,0,1-18.3-1.6,1.3,1.3,0,0,1,.4-2.5,99.9,99.9,0,0,0,42.5-1.4,1.1,1.1,0,0,1,1.5.9,1.2,1.2,0,0,1-.9,1.5A101.7,101.7,0,0,1,937.4,479.2Z"/><path class="cls-16" d="M962.2,452.5a1.4,1.4,0,0,1-1.3-1,1.3,1.3,0,0,1,1-1.5,7,7,0,0,0,5.4-5.1,7.3,7.3,0,0,0-2.3-7.1,1.2,1.2,0,0,1-.2-1.7,1.3,1.3,0,0,1,1.8-.2,9.7,9.7,0,0,1,3.1,9.6,10,10,0,0,1-7.3,7Z"/><path class="cls-16" d="M962.5,465.4a1.4,1.4,0,0,1-1.1-.7,1.3,1.3,0,0,1,.6-1.7,6,6,0,0,0,3.6-4.9,6.4,6.4,0,0,0-2.4-5.6,1.2,1.2,0,0,1-.3-1.7,1.3,1.3,0,0,1,1.8-.3,8.6,8.6,0,0,1-1.7,14.8Z"/><path class="cls-9" d="M879.3,551.2l-11.8,19.6-18.7,30.8H742.2a776.4,776.4,0,0,1,64.4-75.2c5.9-6,12.1-12.1,18.5-18.1C829.4,511.5,879.3,551.2,879.3,551.2Z"/><path class="cls-17" d="M879.3,551.2l-11.8,19.6-60.9-44.5c5.9-6,12.1-12.1,18.5-18.1C829.4,511.5,879.3,551.2,879.3,551.2Z"/><path class="cls-15" d="M976.7,332.4s-35.8-1.5-39.3-1.1c-5.4.7-10.3,7.6-4.6,14.6-4.7,2-7.2,12.4.4,16.2-5.3,2.6-4.4,12.7.5,13.9-8.4,2.5-7.9,9.8-5.5,13.7a13.8,13.8,0,0,0,7.2,5.2l.2-7.5,9.8.2s35.6,19.6,58.4.7C1022.5,372.8,1006.6,332.7,976.7,332.4Z"/><path class="cls-16" d="M934.1,346.7a1.3,1.3,0,0,1-.8-.3,9.8,9.8,0,0,1-3.2-9.3A9.7,9.7,0,0,1,937,330a1.2,1.2,0,0,1,.6,2.4,7.1,7.1,0,0,0-5.1,5.2,7.2,7.2,0,0,0,2.4,6.9,1.4,1.4,0,0,1,.2,1.8A1.3,1.3,0,0,1,934.1,346.7Z"/><path class="cls-16" d="M934.9,363.7h-.3a10.1,10.1,0,0,1-7.5-8.7,10.3,10.3,0,0,1,5.6-10.2,1.2,1.2,0,0,1,1.6.6,1.3,1.3,0,0,1-.6,1.7,7.6,7.6,0,0,0,1.5,14.2,1.2,1.2,0,0,1,.9,1.5A1.1,1.1,0,0,1,934.9,363.7Z"/><path class="cls-15" d="M936,377.9h-.4a9.8,9.8,0,0,1-7.1-8.9,8.7,8.7,0,0,1,2.6-6.4,4.8,4.8,0,0,1,4-1.2,1.2,1.2,0,0,1-.4,2.4,2.3,2.3,0,0,0-2,.7,6.4,6.4,0,0,0-1.7,4.5,7.5,7.5,0,0,0,5.4,6.6,1.2,1.2,0,0,1,.8,1.5A1.4,1.4,0,0,1,936,377.9Z"/><path class="cls-15" d="M1016.7,372.8c-11.8-39.4-40-40.4-40-40.4l-1.4,56s.3,64.2,0,78.7-.6,133.7-.6,133.7h92C1053.1,497.3,1028.6,412.1,1016.7,372.8Z"/><path class="cls-9" d="M1068.7,601.1H970.1l1.8-77.4.7-28.6,72.8-21.1s2.7,11.5,6.3,28.2C1057.8,531,1066.7,575.2,1068.7,601.1Z"/><path class="cls-17" d="M1051.7,502.2l-79.8,21.5.7-28.6,72.8-21.1S1048.1,485.5,1051.7,502.2Z"/><path class="cls-16" d="M974.4,397.9a49.4,49.4,0,0,1-29.2-9.4H934.8a1.2,1.2,0,1,1,0-2.4H946l.3.2a47.7,47.7,0,0,0,40,7.6,1.4,1.4,0,0,1,1.5.9,1.3,1.3,0,0,1-.9,1.5A48.2,48.2,0,0,1,974.4,397.9Z"/><path class="cls-2" d="M225.2,340.6h24.3s16.4-10.8,13.5-28.4-13.5-35-28-34.7-33.6,14.1-34.3,28.1S206.3,340.3,225.2,340.6Z"/><path class="cls-18" d="M256.6,358.1l.4-20.9-57.9-1.6.5,22.2s-11.7,1.5-13.9,15.8-20,202-21.5,225.6H283.1S270.8,372.6,256.6,358.1Z"/><path class="cls-19" d="M204.3,358a1.2,1.2,0,0,1-1.1-1l-.9-19.7a1.1,1.1,0,0,1,1.1-1.2,1.1,1.1,0,0,1,1.1,1.1l.9,19.7a1,1,0,0,1-1,1.1Z"/><path class="cls-19" d="M209.2,357.7a1.1,1.1,0,0,1-1.1-1.1l-.5-19.7a1,1,0,0,1,1-1.1,1.3,1.3,0,0,1,1.2,1.1l.5,19.7a1.1,1.1,0,0,1-1.1,1.1Z"/><path class="cls-19" d="M215.1,358a1.1,1.1,0,0,1-1.1-1.1V337.8a1.1,1.1,0,1,1,2.2,0v19.1A1.1,1.1,0,0,1,215.1,358Z"/><path class="cls-19" d="M221.5,358.6h0a1.1,1.1,0,0,1-1.1-1.1l.3-19.1a1.1,1.1,0,0,1,1.1-1,1.1,1.1,0,0,1,1.1,1.1l-.3,19.1A1,1,0,0,1,221.5,358.6Z"/><path class="cls-19" d="M227.1,358H227a1.2,1.2,0,0,1-1-1.2l1.5-18.1a1.1,1.1,0,0,1,1.2-1,1,1,0,0,1,1,1.1L228.2,357A1,1,0,0,1,227.1,358Z"/><path class="cls-19" d="M235.2,358.3h-.1a1.1,1.1,0,0,1-1-1.2l1.8-19.3a1.1,1.1,0,0,1,1.2-1,1.1,1.1,0,0,1,1,1.2l-1.8,19.3A1.1,1.1,0,0,1,235.2,358.3Z"/><path class="cls-19" d="M244.4,357.7h-.1a1,1,0,0,1-1-1.1l.2-17.2a1.1,1.1,0,0,1,1.1-1.1h0a1.1,1.1,0,0,1,1.1,1.1l-.2,17.2A1.2,1.2,0,0,1,244.4,357.7Z"/><path class="cls-19" d="M251.1,357.7h0a1.1,1.1,0,0,1-1.1-1.1l.3-16a1.1,1.1,0,0,1,1.2-1,1,1,0,0,1,1,1.1l-.3,15.9A1.1,1.1,0,0,1,251.1,357.7Z"/><path class="cls-19" d="M256.4,358.7h-56a1.1,1.1,0,0,1,0-2.2h56a1.1,1.1,0,0,1,0,2.2Z"/><polygon class="cls-12" points="249.9 461.1 232.2 461.1 231.8 214.3 231.5 12.5 231.5 0 249.1 0 249.1 12.5 249.5 214 249.9 461.1"/><polygon class="cls-13" points="249.5 204.3 249.1 12.5 231.5 12.5 231.8 204.3 249.5 204.3"/><path class="cls-1" d="M231.1,273.2c-.4-3.6,7.1-5.5,12.6-6.1s22.8-5.7,27.5-1,3.9,12-.6,14c3.9,6.4,3.7,12.5-2.2,13.9,2.4,5.1,2.2,14.7-4.7,15.1,2.4,8.7-1.8,12.9-6.9,13.6-10,1.4-21-1.6-23.8-4.7s-1.1-8.7,4.8-10c0,0-6.1-.2-6.1-6.5,0-4.2,5.5-5.9,5.5-5.9s-6.1-2-5.1-9.5C229.3,281.4,231.1,273.2,231.1,273.2Z"/><path class="cls-1" d="M212.5,332.4a16,16,0,0,1-4-2.8c-6.8-6.5-8.5-18.2-7.7-27.2,1.8-19.2,12.5-24.4,17.4-26.8s28.7-5.2,32.4-2.5,2.4,10.1-3.7,13.5-16.5,1.5-21,4.5-5.9,6.2-5.9,6.2,7.4,3.3,9.2,8.8c3,8.9,4.2,25.8-8.4,27.8A14.2,14.2,0,0,1,212.5,332.4Z"/><polygon class="cls-8" points="119.6 22.9 358.1 22.9 360 190.8 119.1 190.8 119.6 22.9"/><path class="cls-19" d="M240.8,515.2a1.3,1.3,0,0,1-.8-.3c-7.7-7.4-15.8-15-21.4-24.7a124,124,0,0,1-9.5-19c-7-17.9-9.9-37-12.1-53.5a1.2,1.2,0,0,1,1-1.3,1.2,1.2,0,0,1,1.2,1c2.1,16.4,5,35.4,11.9,53a128.9,128.9,0,0,0,9.3,18.7c5.5,9.4,13.5,16.9,21.1,24.2a1,1,0,0,1,.1,1.5A.9.9,0,0,1,240.8,515.2Z"/><path class="cls-19" d="M229.9,510.4a.8.8,0,0,1-.7-.2,104.7,104.7,0,0,1-32.1-43.7,1.1,1.1,0,0,1,.7-1.4,1.1,1.1,0,0,1,1.4.6,102.5,102.5,0,0,0,31.3,42.8,1,1,0,0,1,.2,1.5A.9.9,0,0,1,229.9,510.4Z"/><path class="cls-19" d="M190,585.5a1.1,1.1,0,0,1-1.1-1.1,1,1,0,0,1,1-1.1,108.7,108.7,0,0,0,69.9-31.9,1.1,1.1,0,0,1,1.6,1.6A110.6,110.6,0,0,1,190,585.4Z"/><path class="cls-19" d="M228.6,586.4a1.1,1.1,0,0,1-1-.7,1.1,1.1,0,0,1,.6-1.4,54.5,54.5,0,0,0,23.9-17.1,1.1,1.1,0,0,1,1.5-.2,1.2,1.2,0,0,1,.2,1.6A56.3,56.3,0,0,1,229,586.3Z"/><path class="cls-3" d="M255.2,310.6a109.8,109.8,0,0,1-17.5-1.4,1,1,0,0,1-.9-1.2,1,1,0,0,1,1.2-.9,119.4,119.4,0,0,0,24.7,1.1,1.1,1.1,0,0,1,1.2,1,1,1,0,0,1-1,1.1C260.4,310.5,257.8,310.6,255.2,310.6Z"/><path class="cls-3" d="M245.5,296.6l-7.4-.2a1,1,0,0,1-1-1.2,1,1,0,0,1,1.1-1,153,153,0,0,0,27.9-1.2,1,1,0,0,1,1.2.9,1.1,1.1,0,0,1-.9,1.3A161.8,161.8,0,0,1,245.5,296.6Z"/><path class="cls-3" d="M218.2,302.8h-.3a1.1,1.1,0,0,1-.7-1.4,18.3,18.3,0,0,1,9.7-10.9,31.4,31.4,0,0,1,9-2.3h.6a34.9,34.9,0,0,0,7.9-1.8,11.6,11.6,0,0,0,6.3-5,6.5,6.5,0,0,0-.3-7.2,1.1,1.1,0,0,1,.2-1.6,1.1,1.1,0,0,1,1.5.2c2.1,2.5,2.3,6.5.6,9.7a14.9,14.9,0,0,1-7.5,6,40.6,40.6,0,0,1-8.4,1.8h-.6a36.1,36.1,0,0,0-8.3,2.1,16.6,16.6,0,0,0-8.7,9.7A1,1,0,0,1,218.2,302.8Z"/><path class="cls-3" d="M251.7,283a1.1,1.1,0,0,1-.2-2.2l15.8-1.8a1.1,1.1,0,1,1,.2,2.2L251.8,283Z"/><path class="cls-20" d="M587.9,84.3,585,50.1l-7.4,35.1H565.8l-7.7-36-1.5,36.3-14.3-.2L544.4,36l22.9.2,4.4,19.3,4.7-18.9,21.2-.4,5.2,48Z"/><path class="cls-20" d="M611.6,85.5V37.1l29.1-.6.2,11.8-13.7.2v6.9h14.4V68.1H627v6.2l14.2-.4.3,11Z"/><path class="cls-20" d="M695.3,36.5,694.7,84l-19.7.5L662.5,56.6V84.8H650.3v-49h15.3l14.9,33.1.2-32.1Z"/><path class="cls-20" d="M733.4,63.6V85H716.3V62.9L700.8,35.7l14.4-1.4,10,17.2L738.3,34l15,2.7Z"/><path class="cls-20" d="M778.1,57.6a13.4,13.4,0,0,1,4.6,3.4,10.9,10.9,0,0,1,2.3,4.1,20.9,20.9,0,0,1,.8,2.3,10.3,10.3,0,0,1,.3,2.6,19.4,19.4,0,0,1-.5,4.9,18.4,18.4,0,0,1-1.7,4.3,14.3,14.3,0,0,1-2.7,3.5,21.6,21.6,0,0,1-3.8,2.7,23.5,23.5,0,0,1-4.4,1.7,18.2,18.2,0,0,1-4.6.6,16.7,16.7,0,0,1-3.1-.2l-3-.8-2.8-1.1a12.6,12.6,0,0,1-2.3-1.3,16.5,16.5,0,0,1-5.5-6.7l9.6-6.1.6,1,1.2,1.3a7.8,7.8,0,0,0,1.8,1.1,4.3,4.3,0,0,0,2.4.5,3.4,3.4,0,0,0,2.8-1.3,4.2,4.2,0,0,0,1.1-2.9c0-2.1-1.6-3.6-5-4.7a22.8,22.8,0,0,1-4.7-2.3,28.8,28.8,0,0,1-3.9-3c-.6-.7-1.2-1.3-1.7-2a8,8,0,0,1-1.5-2.1,12.8,12.8,0,0,1-1-2.6A16.1,16.1,0,0,1,753,51a14.5,14.5,0,0,1,.4-3.5,12.4,12.4,0,0,1,1.1-3.6,16.9,16.9,0,0,1,2.2-3.5,18.3,18.3,0,0,1,3.5-3.2,20.9,20.9,0,0,1,4.7-2.5,18.6,18.6,0,0,1,6.7-1,16.4,16.4,0,0,1,6.5,1.2,20.2,20.2,0,0,1,4.3,2.6l2.6,2.9L777.1,48a2,2,0,0,0-.8-.8l-1.3-.7-1.5-.6-1.4-.2a4.5,4.5,0,0,0-3.4,1.2,4,4,0,0,0-1.1,2.7,4.7,4.7,0,0,0,2.4,3.9l1.5.7,1.9.9,2.1,1.1Z"/><path class="cls-20" d="M549,146.5a13.3,13.3,0,0,1,4.6,3.3A14.4,14.4,0,0,1,556,154c.2.7.5,1.5.7,2.3a6.9,6.9,0,0,1,.4,2.5,19.6,19.6,0,0,1-.6,5,17.5,17.5,0,0,1-1.6,4.2,11.7,11.7,0,0,1-2.8,3.5,17.8,17.8,0,0,1-3.8,2.8,21.1,21.1,0,0,1-4.4,1.7,17.4,17.4,0,0,1-4.5.6,25.1,25.1,0,0,1-6.2-1l-2.8-1.1-2.3-1.3a15.5,15.5,0,0,1-5.4-6.7l9.5-6.2a3.7,3.7,0,0,0,.6,1,4.9,4.9,0,0,0,1.2,1.3,5.7,5.7,0,0,0,1.8,1.2,4.7,4.7,0,0,0,2.4.5A3.4,3.4,0,0,0,541,163a4.4,4.4,0,0,0,1.2-2.9c0-2.1-1.7-3.7-5-4.8a21.2,21.2,0,0,1-4.8-2.2,19.1,19.1,0,0,1-3.8-3.1,10.7,10.7,0,0,1-1.8-1.9,11.3,11.3,0,0,1-1.5-2.1,12.8,12.8,0,0,1-1-2.6,17.5,17.5,0,0,1-.3-3.5,21.6,21.6,0,0,1,.3-3.5,16.5,16.5,0,0,1,1.1-3.6,18.6,18.6,0,0,1,2.2-3.5,18.3,18.3,0,0,1,3.5-3.2,23.4,23.4,0,0,1,4.7-2.5,18.6,18.6,0,0,1,6.7-1,16.4,16.4,0,0,1,6.5,1.2,17.6,17.6,0,0,1,4.4,2.6l2.6,2.8-8,7.7a1.5,1.5,0,0,0-.8-.8l-1.3-.8-1.5-.5-1.4-.2a4.2,4.2,0,0,0-3.3,1.2,3.4,3.4,0,0,0-1.2,2.6,4.7,4.7,0,0,0,2.4,4l1.5.7,1.9.8,2.2,1.2Z"/><path class="cls-20" d="M585.5,122.2a25,25,0,0,1,10.7,2.2,24.2,24.2,0,0,1,8.1,5.9,24.8,24.8,0,0,1,5.2,8.3,25.7,25.7,0,0,1,1.8,9.4,26.3,26.3,0,0,1-1.3,8.4,26.6,26.6,0,0,1-4.3,7.7l-4.3,4.2a25,25,0,0,1-7.1,3.6,26.4,26.4,0,0,1-7.8,1.2,26.3,26.3,0,0,1-15.7-5.4l-4.7-4.7a24.2,24.2,0,0,1-4-7.6,25.2,25.2,0,0,1-1.4-8.2,24.9,24.9,0,0,1,4-13.7l7.8-7.8a25,25,0,0,1,6.3-2.7A25.6,25.6,0,0,1,585.5,122.2Zm-9.3,26.1a7.9,7.9,0,0,0,.8,3.8,9.7,9.7,0,0,0,2.2,3.1,8.5,8.5,0,0,0,3,1.9,8.7,8.7,0,0,0,3.5.7,9.9,9.9,0,0,0,4.9-1.4l3.4-3.3a9.7,9.7,0,0,0,1.3-4.9,8,8,0,0,0-.8-3.7,8.1,8.1,0,0,0-2.1-3,7.9,7.9,0,0,0-3-2,9.5,9.5,0,0,0-3.7-.8,9.1,9.1,0,0,0-3.7.8,10.5,10.5,0,0,0-3,2,9.3,9.3,0,0,0-2.8,6.8Z"/><path class="cls-20" d="M657.1,172.4l-14.1,2-6.7-13.5-2,.3-2.1.2v12.2H617.6V123.4h14.5a18.5,18.5,0,0,1,7.4,1.5A19.7,19.7,0,0,1,649.6,135a18.1,18.1,0,0,1,1.5,7.4,17.2,17.2,0,0,1-1,6,20.7,20.7,0,0,1-2.8,5.3Z"/><path class="cls-20" d="M681.7,122.2a24.2,24.2,0,0,1,10.6,2.2,25.7,25.7,0,0,1,8.2,5.9,28.4,28.4,0,0,1,5.2,8.3,25.7,25.7,0,0,1,1.8,9.4,26.4,26.4,0,0,1-1.4,8.4,22.7,22.7,0,0,1-4.3,7.7l-4.2,4.2a25.6,25.6,0,0,1-7.2,3.6,25.3,25.3,0,0,1-7.7,1.2,25.7,25.7,0,0,1-8.2-1.4,24.7,24.7,0,0,1-7.5-4l-4.8-4.7a26.4,26.4,0,0,1-4-7.6,25.1,25.1,0,0,1-1.3-8.2,25.6,25.6,0,0,1,3.9-13.7l7.9-7.8a23.9,23.9,0,0,1,13-3.5Zm-9.4,26.1a9.2,9.2,0,0,0,.8,3.8,11.6,11.6,0,0,0,2.2,3.1,8.9,8.9,0,0,0,3.1,1.9,8.4,8.4,0,0,0,3.5.7,9.2,9.2,0,0,0,4.8-1.4l3.4-3.3a9.9,9.9,0,0,0,1.4-4.9,9.5,9.5,0,0,0-.8-3.7,8.1,8.1,0,0,0-2.1-3,9.2,9.2,0,0,0-3.1-2,9,9,0,0,0-3.6-.8,8.7,8.7,0,0,0-3.7.8,8.7,8.7,0,0,0-5.1,5.1A9.5,9.5,0,0,0,672.3,148.3Z"/><path class="cls-20" d="M745.8,173.7l-31.1.9-.3-50.3h15.7v36.2l15.4-.4Z"/><path class="cls-20" d="M783,173.7l-31.1.9-.3-50.3h15.8v36.2l15.3-.4Z"/><path class="cls-20" d="M800.4,158.9l-12.6.4.4-35.4,13.2-.4Zm-.3,15.5-12.1-.2V162.9l12.4.5Z"/><path class="cls-20" d="M241.9,78.2l.8.5.7.6-.5,1.1-1.6,2.9c-.5,1-1.2,2.1-1.9,3.2l-2.3,3.1a23.7,23.7,0,0,1-2.8,2.7,14.4,14.4,0,0,1-3.1,1.9,8.9,8.9,0,0,1-3.6.7,10.1,10.1,0,0,1-3.1-.5,9.3,9.3,0,0,1-2.6-1.5,6.3,6.3,0,0,1-1.8-2.2,7.2,7.2,0,0,1-.6-2.9,9.7,9.7,0,0,1,.3-2.3,19.7,19.7,0,0,1,.7-2.6c.2-.9.5-1.7.7-2.5a5.9,5.9,0,0,0,.4-2.1,1.3,1.3,0,0,0-.1-.6,2.5,2.5,0,0,0-.1-.8c-.3.5-.8,1-1.3,1.8L218.7,81l-1.2,2.4a12.2,12.2,0,0,0-.7,1.7c-.5.9-1,1.8-1.4,2.7s-.7,1.8-1.1,2.7l-1,2.7c-.4.8-.7,1.7-1.2,2.5h-1.9l-1.6-.5-1.6-.7-1.4-.7a3.8,3.8,0,0,1-.9-.9c0-.2.1-.5.1-.7s.1-.4.1-.7a22.3,22.3,0,0,1,.9-3.2l1.2-3.4c.4-1.1.7-2.3,1.1-3.5a13.9,13.9,0,0,0,.4-3.5c0-.3,0-.5-.1-.5l-.3-.2a3.5,3.5,0,0,0-1.6,1,10.6,10.6,0,0,0-1.7,2.3c-.6.9-1.2,1.8-1.8,2.9a35.9,35.9,0,0,0-1.7,3.4c-.6,1.1-1.2,2.3-1.7,3.4L198,93.2c-.5,1-1,1.8-1.4,2.5a4.4,4.4,0,0,1-1.2,1.6,6.4,6.4,0,0,1-2-.3l-1.7-.7a5.4,5.4,0,0,1-1.5-.9l-1.3-1.2c0-.1-.1-.2-.1-.4v-.3a10.6,10.6,0,0,1,.5-3.1c.3-1,.6-2,1-3s.9-2,1.4-3a25.9,25.9,0,0,0,1.4-2.9c.4-1,.7-1.9,1-2.9a11.2,11.2,0,0,0,.4-3.2V74.3a16.4,16.4,0,0,0-2.6,1.6l-2,1.8-1.6,1.8a10.3,10.3,0,0,1-1.4,1.5,6.3,6.3,0,0,1-1.3,1.1,2.3,2.3,0,0,1-1.4.4h-.6l-1-.2-1.3-.7a4.3,4.3,0,0,1-1.1-1.2,9,9,0,0,1,.7-1.4l1.1-2,1.5-2.6,1.8-2.8a31.7,31.7,0,0,1,2.1-2.7,25.5,25.5,0,0,1,2.4-2.3,11.2,11.2,0,0,1,2.8-1.6,10.6,10.6,0,0,1,3.1-.5l2.2.3a9,9,0,0,1,2.1.8,4.9,4.9,0,0,1,1.8,1.4,6.7,6.7,0,0,1,1.4,1.9,6.9,6.9,0,0,1,2-1.7,5.5,5.5,0,0,1,3.2-.8l2,.2a6,6,0,0,1,2.1.8,10.2,10.2,0,0,1,1.8,1.3,4,4,0,0,1,1.1,1.9,15.8,15.8,0,0,1,1.5-1.2l1.6-.9,1.8-.6,2.2-.3a16.2,16.2,0,0,1,2.9,1.5,17.6,17.6,0,0,1,3,2.4,12.9,12.9,0,0,1,2.2,3,6.8,6.8,0,0,1,.9,3.3,5.1,5.1,0,0,1-.4,2,18,18,0,0,1-.8,2.1l-1,1.9a7.6,7.6,0,0,0-.6,1.8h.1a3.6,3.6,0,0,0-.2,1v.3a7.7,7.7,0,0,0,1.5-1,16.2,16.2,0,0,0,2-1.8c.7-.7,1.3-1.5,2.1-2.2l1.9-2.3,1.6-1.9a7.7,7.7,0,0,0,1-1.2Z"/><path class="cls-20" d="M253.7,95.4a6.3,6.3,0,0,1-1.9-.4l-2.7-.8-2.8-1.1-2.1-1a17.5,17.5,0,0,1-2.9-1.8,11.5,11.5,0,0,1-2.2-2.2,8.7,8.7,0,0,1-1.4-2.7,11.4,11.4,0,0,1-.5-3.3,11.6,11.6,0,0,1,.7-4,15.7,15.7,0,0,1,1.8-4.2,21.4,21.4,0,0,1,2.8-3.9,20.5,20.5,0,0,1,3.5-3.1,14.9,14.9,0,0,1,4.1-2.2,12.6,12.6,0,0,1,4.3-.8,9.8,9.8,0,0,1,6.1,1.7,6.8,6.8,0,0,1,2.5,5.1,5.5,5.5,0,0,1-.7,2.8,9.1,9.1,0,0,1-1.8,2.7l-2.6,2.3-3.1,1.9-3,1.5a14.6,14.6,0,0,0-2.8,1.3.8.8,0,0,0-.5.5,3.7,3.7,0,0,0-.2,1.2,3.6,3.6,0,0,0,.2,1,1.9,1.9,0,0,0,.4.9,1.5,1.5,0,0,0,.9.6,2.8,2.8,0,0,0,1.4.2,9.3,9.3,0,0,0,3.5-.8,20,20,0,0,0,3.7-2.2,29.7,29.7,0,0,0,3.5-2.7l2.8-2.5a3.4,3.4,0,0,0,1.2-1.2,8,8,0,0,1,1.3-1.3l1.6-1a3.8,3.8,0,0,1,1.9-.5,1.8,1.8,0,0,1,1.5.6,2,2,0,0,1,.6,1.6,8.5,8.5,0,0,1-.3,2.3,7.3,7.3,0,0,1-.9,2.3,20.1,20.1,0,0,1-2.1,2.7l-2.9,2.9-3.5,2.8-3.5,2.5-3.3,1.7A7.3,7.3,0,0,1,253.7,95.4Zm.7-25.5a2.8,2.8,0,0,0-1.5.6,4.9,4.9,0,0,0-1.3,1.2,6.7,6.7,0,0,0-.9,1.4,5.3,5.3,0,0,0-.6,1.4,4.7,4.7,0,0,0,1.5-.6l1.5-1,1.4-1.2a6.4,6.4,0,0,0,1-1.3h-.3l-.4-.2Zm1.9-11.1.3-.6a2.1,2.1,0,0,1,.4-.6l1.3-1.3,1.2-1.2,1.1-1.3,1.2-1.4.5-.5.6-.3,1.5.5,1.4.7,1.4.8,1.3.7.8.6a1.2,1.2,0,0,1,.4.8,3,3,0,0,1-.5,1.6,8,8,0,0,1-1.3,1.3l-1.8,1.1-2.2.8a7.9,7.9,0,0,1-2.2.5l-2,.2h-1.2l-1.2-.4a1.6,1.6,0,0,1-.8-.6,1.1,1.1,0,0,1-.3-.7A1.3,1.3,0,0,1,256.3,58.8Z"/><path class="cls-20" d="M263.7,80.2l3.3-3.1,3.3-3.4c1-1.1,2.1-2.4,3.1-3.7a42.5,42.5,0,0,0,3.1-4.7,1.3,1.3,0,0,0,.1-.6V63.5a5.3,5.3,0,0,0,.4-1.7V60a2.5,2.5,0,0,0,.1-1l.3-1.2.5-1a1.2,1.2,0,0,1,.9-.4,3.2,3.2,0,0,1,1.6.5l2.2,1.2a16.7,16.7,0,0,1,2.4,1.6l2.3,1.9a15.3,15.3,0,0,1,1.8,1.8,3.8,3.8,0,0,1,.9,1.3,1.1,1.1,0,0,1,.1.5v.4a5.7,5.7,0,0,1-.1,1.3,7.6,7.6,0,0,0-.1,1.5,3.7,3.7,0,0,0,.1.8,10.1,10.1,0,0,0,.7,2.1c.3.9.7,1.9,1,3a29.2,29.2,0,0,1,1,3.5,14.5,14.5,0,0,1,.4,3.5l1.1-1.3a13.4,13.4,0,0,1,2.1-2l2.7-2.3.8.5,1.2,1.1,1,1.2a2.1,2.1,0,0,1,.5.9c-1.5,2-3.1,4-4.7,5.8a33.7,33.7,0,0,1-5.2,4.8,25.2,25.2,0,0,1-6,3.3,19.8,19.8,0,0,1-7,1.2,7.7,7.7,0,0,1-3.2-.7,11.4,11.4,0,0,1-3.2-1.8,17.5,17.5,0,0,1-2.9-2.6,20,20,0,0,1-2.3-3l-1.3,1.2a2.9,2.9,0,0,1-2.2.3,5.6,5.6,0,0,1-1.7-.9,5.8,5.8,0,0,1-1.3-1.4,2.4,2.4,0,0,1-.4-1.2A4,4,0,0,1,262,82Zm20-1.8c-.1-.9-.3-1.8-.4-2.7a10.5,10.5,0,0,0-.7-2.3,13.4,13.4,0,0,1-1.8,2.8,29.6,29.6,0,0,1-2.4,2.6l-2.6,2.3-2.6,2a4.5,4.5,0,0,0,1.8,1.5,4.5,4.5,0,0,0,2,.6,5.8,5.8,0,0,0,2.6-.6,7.1,7.1,0,0,0,2.2-1.5,9,9,0,0,0,1.4-2,6.9,6.9,0,0,0,.5-2.4Z"/><path class="cls-20" d="M155.4,148.9l3.4-3.1c1.1-1.1,2.2-2.2,3.2-3.4a30.5,30.5,0,0,0,3.2-3.8,45.8,45.8,0,0,0,3.1-4.6,1.3,1.3,0,0,0,.1-.6v-1.2a5.5,5.5,0,0,0,.3-1.7,10.9,10.9,0,0,1,.1-1.8c0-.2.1-.6.1-1a5.3,5.3,0,0,1,.3-1.2,3.1,3.1,0,0,1,.5-1,1,1,0,0,1,.9-.4,4.1,4.1,0,0,1,1.6.4l2.2,1.2,2.4,1.7,2.3,1.9a13.5,13.5,0,0,1,1.7,1.7l1,1.4a4.3,4.3,0,0,0,.1.5v.4c0,.4-.1.9-.1,1.3a7.7,7.7,0,0,0-.2,1.5l.2.7a10.6,10.6,0,0,0,.7,2.2c.3.9.6,1.9,1,3a18.9,18.9,0,0,1,.9,3.4,15.5,15.5,0,0,1,.5,3.5l1-1.2a13.4,13.4,0,0,1,2.1-2l2.7-2.3a2.1,2.1,0,0,1,.9.5l1.1,1.1,1.1,1.2a1.6,1.6,0,0,1,.4.9c-1.4,2-3,3.9-4.6,5.8a33.7,33.7,0,0,1-5.2,4.8,25.2,25.2,0,0,1-6,3.3,20.2,20.2,0,0,1-7,1.2,7.7,7.7,0,0,1-3.2-.7,14.5,14.5,0,0,1-3.2-1.8,24.3,24.3,0,0,1-3-2.6,30,30,0,0,1-2.3-3l-1.2,1.2a2.9,2.9,0,0,1-2.2.3,6.1,6.1,0,0,1-1.8-.9,4.1,4.1,0,0,1-1.2-1.4,2.7,2.7,0,0,1-.5-1.3,3.4,3.4,0,0,1,1-2.3Zm20-1.8-.3-2.7a10.5,10.5,0,0,0-.7-2.3,16.7,16.7,0,0,1-1.8,2.8l-2.4,2.6-2.6,2.2-2.6,2.1a5.6,5.6,0,0,0,3.7,2.1,6,6,0,0,0,2.7-.6,8,8,0,0,0,2.1-1.5,6,6,0,0,0,1.4-2.1,4.6,4.6,0,0,0,.5-2.3Z"/><path class="cls-20" d="M232.8,145.3a5,5,0,0,1,1.7,1.9,5.1,5.1,0,0,1,.4,2,8.1,8.1,0,0,1-.1,1.6,6.5,6.5,0,0,1-.4,1.3,18.8,18.8,0,0,1-2.4,3.6,31.1,31.1,0,0,1-3.1,3.2,33.7,33.7,0,0,1-3.7,2.9,25.6,25.6,0,0,1-3.9,2.2,17,17,0,0,1-4.1,1.5,17.2,17.2,0,0,1-3.7.5l-2.8-.3-2.5-.8a8.6,8.6,0,0,1-1.8-1.4,2.8,2.8,0,0,1-.7-1.9,10.4,10.4,0,0,1,.2-1.5,14,14,0,0,1-4,1.6,19.6,19.6,0,0,1-4.1.4,13.7,13.7,0,0,1-4.3-.5,7.1,7.1,0,0,1-2.6-1.4,12.4,12.4,0,0,1-2.3-4.4,15,15,0,0,1-.8-4.7,9.9,9.9,0,0,1,.7-3.8,16.2,16.2,0,0,1,1.7-3.5,14.8,14.8,0,0,1,2.6-3,17.8,17.8,0,0,1,3.1-2.3l3.3-1.5a14,14,0,0,1,3.4-.5,12.6,12.6,0,0,1,4.9,1,17,17,0,0,1,5.1,3,3.4,3.4,0,0,1,2.1-.9h.7l.7.4h1l.9.4a22.6,22.6,0,0,1,2.2,2.2,3.4,3.4,0,0,1,.8,1.8,5.3,5.3,0,0,1-.5,2l-1.3,2.3a30,30,0,0,0-2.2,4.4,16.4,16.4,0,0,0-1.3,4.3.6.6,0,0,0,.6.3,3.8,3.8,0,0,0,1.8-.7l2.6-1.7,3.2-2.3a30.4,30.4,0,0,0,3.3-2.8l3.1-2.7Zm-26.7-2a3.7,3.7,0,0,0-1.4.7l-1.5,1.5-1.6,2a25.3,25.3,0,0,0-1.3,2.2,21.4,21.4,0,0,0-1,2.2,6.8,6.8,0,0,0-.3,1.9,1.3,1.3,0,0,0,.3,1l.9.2a5.5,5.5,0,0,0,3.2-1,12.3,12.3,0,0,0,2.8-2.4,20.2,20.2,0,0,0,2.3-3.2l1.7-3.5a.9.9,0,0,0-.3-.5l-.8-.5-1.2-.5-1.2-.2Z"/><path class="cls-20" d="M246.1,164.6a8,8,0,0,1-2.3-.5,25.8,25.8,0,0,1-3.1-1.3l-3.2-1.7-3-1.9a23.8,23.8,0,0,1-2.2-1.8c-.6-.5-.9-.9-.9-1.3s-.1-1.7-.1-2.6a41.1,41.1,0,0,1,.8-7.7,67.7,67.7,0,0,1,2.2-7.7q1.3-3.7,3-7.5c1.1-2.4,2.2-4.8,3.4-7.1l2.6-4.9a16.4,16.4,0,0,1,1.2-2.2,15.9,15.9,0,0,1,1.7-2.5,22.5,22.5,0,0,1,2.1-2.4,23.1,23.1,0,0,1,2.4-2,12.2,12.2,0,0,1,2.7-1.5,7.9,7.9,0,0,1,3-.5,4.1,4.1,0,0,1,2,.6,9.5,9.5,0,0,1,2,1.5,13.4,13.4,0,0,1,2,2.1l1.6,2.1a9.7,9.7,0,0,1,1.1,1.8,2.9,2.9,0,0,1,.5,1v.5a22.8,22.8,0,0,1-1.1,6.6,35.3,35.3,0,0,1-2.8,6.7,51.2,51.2,0,0,1-4.2,6.5,56.8,56.8,0,0,1-4.9,5.9,60.8,60.8,0,0,1-5.2,5,46.9,46.9,0,0,1-4.9,3.8,4.6,4.6,0,0,0,.1,1,7.4,7.4,0,0,0,.4,1.4,6.1,6.1,0,0,0,.5,1.2,1,1,0,0,0,.8.5,2.4,2.4,0,0,0,1.2-.4l1.5-.9,3-2.1,2.8-2.1,2.4-2.2,2.2-2,1.6-1.2,1.2-.4a2.4,2.4,0,0,1,1.8.6,2.2,2.2,0,0,1,.7,1.9,7.6,7.6,0,0,1-.8,2.8,32.1,32.1,0,0,1-2.3,3.8,35.2,35.2,0,0,1-3.1,3.9l-3.6,3.6a25.3,25.3,0,0,1-3.7,2.6A7.4,7.4,0,0,1,246.1,164.6ZM258,117.5a51.2,51.2,0,0,0-3.4,4.4c-1,1.6-2.1,3.3-3.1,5.1s-2,3.8-3,5.8-2.1,4.3-3.1,6.8h.1a13.9,13.9,0,0,0,2.9-2.2,31.1,31.1,0,0,0,2.9-3.3,28.2,28.2,0,0,0,2.4-3.6q1.1-1.9,1.8-3.6l1-2.4,1-2.4a18.7,18.7,0,0,0,.7-2.2,8.9,8.9,0,0,0,.3-2.2h-.3Z"/><path class="cls-20" d="M295.3,144.6l2.2,1.9a6.6,6.6,0,0,1,1.2,1.2l.6.5.2.3a.8.8,0,0,1-.1.4l-.6.7-.8,1.2-1.3,1.9-1.5,2.2-1.5,2.2a17.3,17.3,0,0,1-1.5,2l-1,1.3-.6.5a8,8,0,0,1-1.3,1.3l-1.7,1.1-1.8.9a5.7,5.7,0,0,1-1.8.3,10.3,10.3,0,0,1-3-.4,10.8,10.8,0,0,1-2.7-1,9.1,9.1,0,0,1-2.1-1.8,7.2,7.2,0,0,1-1.4-2.4,8.5,8.5,0,0,1-2.6,2.3l-1.7.8-1.8.3a6.8,6.8,0,0,1-2-.2l-2-.5-1.9-.7-1.6-.7a11.6,11.6,0,0,1-4.5-2.8,6,6,0,0,1-1.5-4.2,10.5,10.5,0,0,1,.5-3c.4-1.1.9-2.2,1.3-3.2l1.5-3.1a12.4,12.4,0,0,0,1-2.6,3.7,3.7,0,0,1,.5-1.1,6,6,0,0,1,.8-.8l.9-.4.8-.2,1.3.8,1.5,1,1.4,1.2,1.3,1a1.3,1.3,0,0,0,.7.6l.4.6a5.1,5.1,0,0,1-.4,1.4,14.2,14.2,0,0,0-.8,1.8l-.8,2a7.7,7.7,0,0,0-.5,1.9,2.2,2.2,0,0,1-.1.8v1.6q0,.6.3.6a10.8,10.8,0,0,0,1.4-1.5,25.2,25.2,0,0,0,1.5-2.4l1.5-2.6,1.5-2.7,1.3-2.2a13.2,13.2,0,0,1,1.2-1.6c.1-.2.4-.3.7-.4h.9a2.6,2.6,0,0,1,1.7.5,3.4,3.4,0,0,1,1.2,1.2,7.5,7.5,0,0,1,.7,1.2,8.6,8.6,0,0,0,.7,1l.8.9,1,.9a3,3,0,0,1,.8.9c0,.3.1.6.1.9a10,10,0,0,1-.2,1.6c-.2.6-.3,1.2-.5,1.8s-.3,1.3-.5,1.9a11.1,11.1,0,0,0-.2,1.7c0,.5.1.9.4,1a9.1,9.1,0,0,0,1.7-1.2,22.9,22.9,0,0,0,2.4-2.2l2.6-2.5,2.5-2.6,2.1-2A4,4,0,0,1,295.3,144.6Z"/><path class="cls-20" d="M325.9,133.6l-.6.6-.8.5a7.3,7.3,0,0,1-2,1l-3,1-3.2.9-2.5.5-2.4.3a5,5,0,0,0-1.3.3c-.3.1-.5.4-.8.8l-1,1.9a18,18,0,0,1-1,2.4q-.6,1.5-1.2,3.3a22.4,22.4,0,0,0-1,3.7,14.7,14.7,0,0,0-.5,3.4,5.7,5.7,0,0,0,.5,2.4l2.4-.8,2.9-1.5,3.2-2.2,3.1-2.5a33.2,33.2,0,0,0,2.7-2.5,13.6,13.6,0,0,0,2-2.5,11,11,0,0,1,2.6,1.5l2.1,1.7c-.4,1-1,2-1.6,3.2s-1.5,2.3-2.4,3.5l-2.9,3.6c-1.1,1.1-2.2,2.2-3.3,3.1a22.6,22.6,0,0,1-3.4,2.3,8.2,8.2,0,0,1-3.4,1.2H307l-2.8-.8-3.1-.9-3-1.1a11.7,11.7,0,0,1-2.7-1.5,9.1,9.1,0,0,1-2-1.9,4.6,4.6,0,0,1-.8-2.5,2.8,2.8,0,0,1-.1-.9v-1a27.1,27.1,0,0,1,3.4-13.3l-2.7.4-1.6.3-1.3.2h-3.9l-1.1-.4-.6-.5-.2-.5a1.7,1.7,0,0,1,.8-1.2l1.9-1.2,2.6-1,2.7-.7,2.6-.6,1.8-.4,1.2-.5.8-.7a10.5,10.5,0,0,0,.8-1.1l1-1.6,1.5-2.4a18.1,18.1,0,0,1,1.9-2.9,14.3,14.3,0,0,1,2.2-2.6,5.1,5.1,0,0,1,2.5-1.5l.8-.2h.8l1.7.2,2,.6a5.6,5.6,0,0,1,1.9.9,4.9,4.9,0,0,1,1.3,1,5.5,5.5,0,0,1-.9,1.4l-1.3,2-1.9,2.7a16.4,16.4,0,0,0-1.6,2.9l2.9-.4,3.3-.5,3.4-.4,3-.5h.3c1,0,1.6.2,1.9.6l-.3.8C326,133,326,133.3,325.9,133.6Z"/><path class="cls-20" d="M428.1,312.6a6,6,0,0,1-3.5-4.6,24.1,24.1,0,0,1,0-7.6,41.8,41.8,0,0,1,2-8.7c1-2.9,2-5.6,3-8h-.2a107.9,107.9,0,0,0-9.6,15.7,128.6,128.6,0,0,0-5.1,11.9,2.4,2.4,0,0,1-.8.9l-.7.5h-1.3l-1.6-.4a3.8,3.8,0,0,1-1.1-.5,6.3,6.3,0,0,1-2.7-5,23.4,23.4,0,0,1,.3-7.4,45.9,45.9,0,0,1,2.1-8.3c.9-2.8,1.9-5.3,2.8-7.6h-.2c-1.7,2.2-3.4,4.8-5.2,7.7s-3.2,5.7-5.1,9.4-3.6,8-5.4,12.8c0,.5-.2.8-.5.9l-.6.2a8.1,8.1,0,0,1-3.6-1.1,9.8,9.8,0,0,1-2.2-1.7,2.2,2.2,0,0,1-.5-1.4.8.8,0,0,1,0-.7,27.9,27.9,0,0,1,.5-4.7c.3-1.8.7-3.5,1.1-5.2l1.2-5,1.3-4.4c.3-1,.6-2.1,1-3.1l.8-2.5c.3-.8.5-1.3.6-1.7l1.2-3.5q.6-1.7,1.2-3l1.1-2.6c0-.1,0-.2.1-.2a3.9,3.9,0,0,1,.2-.6l.8-.9a1.4,1.4,0,0,1,1.3-.3l2.5,1.1a11.8,11.8,0,0,1,3.1,2.5.6.6,0,0,1,.2.5l.3.5c0,.3.1.5.1.8s-.1.8-.1,1.3a3.7,3.7,0,0,1-.7,1.4v.3l-.7,1.5-1.1,2.1a15.4,15.4,0,0,1-.8,1.9l-.7,1.8-1,2.7c1.2-2.2,2.5-4.4,3.9-6.5a37.5,37.5,0,0,1,4.2-5.5,14,14,0,0,1,4.2-3.4,4.3,4.3,0,0,1,3.8-.2l2.5,1.4a12.8,12.8,0,0,1,2.9,2.4,5,5,0,0,1,.5,1.3v1.5a8,8,0,0,1-.8,2.1l-1.1,1.8c-.4.8-.9,1.8-1.5,2.8l-1.7,3.5c-.6,1.3-1.1,2.5-1.6,3.8,1.3-2.6,2.7-5.2,4.3-7.9a60.2,60.2,0,0,1,4.9-7.2,22.9,22.9,0,0,1,5-4.9,4.2,4.2,0,0,1,4.5-.6l2.6,1.4a14.9,14.9,0,0,1,2.8,2.4,2.9,2.9,0,0,1,.5,1.3,3.6,3.6,0,0,1,0,1.5,8,8,0,0,1-.8,2.1l-1.4,2.6c-.6,1.1-1.3,2.4-2,3.9l-2.1,4.7a28.3,28.3,0,0,0-1.6,4.6,14.8,14.8,0,0,0-.6,3.7q.2,1.5,1.2,1.8a3.3,3.3,0,0,0,2.9-.8,20.6,20.6,0,0,0,2.8-3,30.3,30.3,0,0,0,2.4-3.8l1.8-3.3a2.4,2.4,0,0,1,.6-.9,2.4,2.4,0,0,1,2.1-.6c.4.1.7.2.8.4a1.2,1.2,0,0,1,.2.8,6,6,0,0,1-.2,1.2c-.5,1-1.1,2.3-2,3.9a41.9,41.9,0,0,1-2.9,4.9,56,56,0,0,1-3.6,4.9,15.1,15.1,0,0,1-4,3.4,6.7,6.7,0,0,1-2.6.9,8.8,8.8,0,0,1-2.3,0A8.5,8.5,0,0,1,428.1,312.6Z"/><path class="cls-20" d="M445.2,292.1a41.8,41.8,0,0,1,5-9.5,25.9,25.9,0,0,1,5.5-5.5,12.7,12.7,0,0,1,5.5-2.2,10.1,10.1,0,0,1,4.7.4,5.6,5.6,0,0,1,2.8,2.4,7.6,7.6,0,0,1,1.1,3.3,5,5,0,0,1,.2,1.2,8.5,8.5,0,0,1,0,1.6,33,33,0,0,1-.8,4.2,18.6,18.6,0,0,1-2.6,5.3,20.8,20.8,0,0,1-5.2,5,24.9,24.9,0,0,1-9,3.4,9.8,9.8,0,0,0,.2,3.8,3.8,3.8,0,0,0,2.6,2.6l1.1.2h.2a10.1,10.1,0,0,0,3.9-.2,12.6,12.6,0,0,0,3.4-1.3,14.2,14.2,0,0,0,2.8-2,20.8,20.8,0,0,0,2.1-2.1l.4-.4a1,1,0,0,1,.4-.5c.5-.6.7-1,.8-1s1.6-2.4,2.3-3.6,1.2-2.3,1.6-3.1a2.4,2.4,0,0,1,.6-.9,2.2,2.2,0,0,1,2.1-.7,1,1,0,0,1,.8.6,1.9,1.9,0,0,1,.2.8,4.4,4.4,0,0,1-.2,1l-1.4,2.7a30.7,30.7,0,0,1-1.9,3.4,19.5,19.5,0,0,1-2.1,3.5l-.6.8-.7,1a36.8,36.8,0,0,1-5.7,5.2,13.8,13.8,0,0,1-8,2.8,8,8,0,0,1-3.1,0,15.7,15.7,0,0,1-6.6-1.9,9.9,9.9,0,0,1-4.7-8,17.9,17.9,0,0,1,.2-4.6h0A40.9,40.9,0,0,1,445.2,292.1Zm9.7,1.9a7.1,7.1,0,0,0-.7,1.6l-.6,1.4a13.3,13.3,0,0,0,5.3-2,17.1,17.1,0,0,0,3.7-3.3,16.3,16.3,0,0,0,2.2-3.7,10.4,10.4,0,0,0,.9-2.9c.2-1.4,0-2.2-.4-2.5l-.9-.4-1.5.4a7.1,7.1,0,0,0-2.1,1.7,19.5,19.5,0,0,0-2.7,3.5A49.1,49.1,0,0,0,454.9,294Z"/><path class="cls-20" d="M483.3,294.5c1.4-2.5,3-5,4.8-7.6a55,55,0,0,1,5.2-6.8,23.6,23.6,0,0,1,5.1-4.6,4.4,4.4,0,0,1,4.5-.5,17.6,17.6,0,0,1,2.7,1.4,10.1,10.1,0,0,1,2.7,2.4,3.1,3.1,0,0,1,.6,1.3,3.6,3.6,0,0,1,0,1.5,8.8,8.8,0,0,1-.9,2.1l-1.4,2.6c-.6,1.1-1.3,2.4-2,3.9l-2.1,4.7a42.7,42.7,0,0,0-1.6,4.6,13.3,13.3,0,0,0-.4,3.7,1.6,1.6,0,0,0,1.2,1.8,3.1,3.1,0,0,0,2.7-.8,13.5,13.5,0,0,0,2.8-3c.9-1.2,1.7-2.5,2.5-3.8a26.5,26.5,0,0,0,1.7-3.3,2.4,2.4,0,0,1,.6-.9,2.4,2.4,0,0,1,2.1-.6,1.1,1.1,0,0,1,1.1,1.2,2.7,2.7,0,0,1-.2,1.2c-.5,1-1.1,2.3-2,3.9s-1.9,3.3-3,4.9a56,56,0,0,1-3.6,4.9,12.3,12.3,0,0,1-3.9,3.4,6.7,6.7,0,0,1-2.6.9,8.8,8.8,0,0,1-2.3,0,7.2,7.2,0,0,1-2.2-.4,6.1,6.1,0,0,1-3.6-4.6,24.1,24.1,0,0,1,0-7.6,49.8,49.8,0,0,1,2.1-8.7c1-2.9,1.9-5.6,2.8-8h-.1a45,45,0,0,0-6.4,7.6,82.3,82.3,0,0,0-5.8,9.4,77.9,77.9,0,0,0-5.7,12.9,1.3,1.3,0,0,1-.5.9l-.7.2a8.5,8.5,0,0,1-3.6-1.1,6.2,6.2,0,0,1-2.1-1.7,1.8,1.8,0,0,1-.6-1.4.8.8,0,0,1,0-.7,46.6,46.6,0,0,1,.6-4.7c.3-1.8.6-3.5,1-5.2l1.2-5c.5-1.6.9-3.1,1.2-4.4s.8-2.1,1.1-3.1.7-1.8.9-2.5a12,12,0,0,1,.6-1.7l1.2-3.5q.6-1.7,1.2-3c.4-.9.7-1.8,1-2.6V274a1.5,1.5,0,0,1,.3-.6,2.8,2.8,0,0,1,.7-.9,1.4,1.4,0,0,1,1.2-.3l2.6,1.1a10,10,0,0,1,3,2.5l.4.5c.1.1.1.3.2.5a2.2,2.2,0,0,1,.1.8,5.1,5.1,0,0,1-.8,2.7v.2a.1.1,0,0,0-.1.1,11.6,11.6,0,0,0-.7,1.5l-1,2.1-.9,1.9a10.8,10.8,0,0,0-.7,1.8l-1.2,3.2C484.1,292.2,483.7,293.3,483.3,294.5Z"/><path class="cls-20" d="M518.7,273.5l.8-.9a1.1,1.1,0,0,1,1.2-.2,11.1,11.1,0,0,1,2.6,1,16.2,16.2,0,0,1,3.1,2.4c.1.1.1.2.2.5a.8.8,0,0,1,.2.6,2.9,2.9,0,0,1,.2.9,7.4,7.4,0,0,1-.2,1.2,2.6,2.6,0,0,1-.7,1.4c0,.2,0,.3-.1.3a7.5,7.5,0,0,1-.7,1.5,20.9,20.9,0,0,1-1,2.1c-.2.6-.5,1.3-.8,2l-.7,1.7-1.6,4.5c-.5,1.6-1.1,3.3-1.6,5s-.4,1.6-.7,2.8a6.8,6.8,0,0,0-.2,3.1,3.3,3.3,0,0,0,.4,1.3,1.7,1.7,0,0,0,.6.6,1.2,1.2,0,0,0,.8.4c1.1.1,2.2-.5,3.4-1.9a29.9,29.9,0,0,0,3.3-4.9,34,34,0,0,0,2.7-5.4,36.6,36.6,0,0,0,1.5-3.6c.6-1.7,1.3-3.4,1.9-5l1.7-4.2c.6-1.3,1.2-2.6,1.8-3.7a3.5,3.5,0,0,1,.7-1.2l.8-.8a1.1,1.1,0,0,1,1.1-.1,11.7,11.7,0,0,1,2.7,1.4,13.1,13.1,0,0,1,3.2,2.6,3.1,3.1,0,0,1,.6,1.3,3.8,3.8,0,0,1,0,1.5,8.8,8.8,0,0,1-.9,2.1l-1.1,2c-.5.9-1,2-1.6,3.2s-1.2,2.4-1.8,3.8a22,22,0,0,0-1.7,3.9c-.4,1.2-.8,2.7-1.3,4.5a4.1,4.1,0,0,0-.1,1.1l-.3,1.1.3-.4,2.1-2,2-1.9,4.2-3.5L549,293l1-.4a1.2,1.2,0,0,1,1.5.8,2.8,2.8,0,0,1-.3,2.2l-.7.8-2.6,2a25.6,25.6,0,0,0-3,2.8l-3.2,3.1c-1,1.1-2.1,2.3-3.1,3.6a6.3,6.3,0,0,0-1.1,1.2,7.1,7.1,0,0,1-1,1.4v1.3a6.1,6.1,0,0,1,.1,1.4c.1.3.1.8.2,1.2a5.1,5.1,0,0,0,.2,1.3c.3,2.3.4,4.7.5,7.2a44.1,44.1,0,0,1-.3,7.3,38.4,38.4,0,0,1-1.5,6.9,16.6,16.6,0,0,1-2.7,5.5c0,.2-.3.5-.8,1l-1,1.2h-.1l-2.8,1.6a8.1,8.1,0,0,1-3.5.7,11.3,11.3,0,0,1-3-.6l-1.9-.9-.8-.6-.7-.7a8,8,0,0,1-1.3-5.5,26.9,26.9,0,0,1,1.7-7.7,62.7,62.7,0,0,1,4.1-8.9,88.3,88.3,0,0,1,5.9-9.1,53.9,53.9,0,0,1-.4-8.3,27.7,27.7,0,0,1-5.8,6,8.8,8.8,0,0,1-6.7,1.9h-.2a5.9,5.9,0,0,1-4.5-2.6,13.1,13.1,0,0,1-1.5-4.6,17.9,17.9,0,0,1,.2-4c.2-1.3.4-2.5.5-3.4l2.1-7.5.9-3.1a20.3,20.3,0,0,0,.9-2.6,5.2,5.2,0,0,0,.6-1.6l1.2-3.5a28.5,28.5,0,0,1,1.2-2.9l1-2.7c0-.1.1-.1.1-.2A1.5,1.5,0,0,1,518.7,273.5Zm11.9,50-.3-1.7a12.4,12.4,0,0,0-.4-1.6q-2.2,3.6-3.9,6.9c-1.1,2.2-2.1,4.1-2.8,5.8l-.6,1.5c-.2.8-.4,1.6-.6,2.6a9.4,9.4,0,0,0,0,2.9,2.6,2.6,0,0,0,1.3,2.2,2.2,2.2,0,0,0,1.6.5,5.5,5.5,0,0,0,2.9-.8,7,7,0,0,0,2-2.2,11.7,11.7,0,0,0,1.1-3c.2-1.2.3-2.3.4-3.6A40.5,40.5,0,0,0,530.6,323.5Z"/><path class="cls-20" d="M551.3,305.2a.4.4,0,0,1,.1.3,2.4,2.4,0,0,1-.2.8.6.6,0,0,0-.3.6,3.7,3.7,0,0,0-.2.9,1.3,1.3,0,0,0,.3.8,1.3,1.3,0,0,0,1.1.5,1.5,1.5,0,0,0,1.6-.3,4.8,4.8,0,0,0,.7-1.6,8.8,8.8,0,0,0,0-2.3c-.1-.8-.1-1.7-.2-2.5s-.3-3.4-.5-4.9-.4-2.9-.5-4.5v-1.3l-1.8,3.3-1.5,2.4a1.8,1.8,0,0,1-.7.8,1.1,1.1,0,0,1-.8.3,1.1,1.1,0,0,1-.9-.5c-.4-.4-.6-.7-.6-1v-1l.5-1c.5-1.1,1-2.3,1.7-3.7l1.8-4.1,1.6-3.8a25.4,25.4,0,0,0,1-2.5,27.3,27.3,0,0,1,.6-4.5,3.9,3.9,0,0,1,.9-2.4,5.3,5.3,0,0,1,2.1-1.2,9.6,9.6,0,0,1,2.9-.8l3.1-.4h3a2.3,2.3,0,0,1,1,.7,3.7,3.7,0,0,1,.2,1.2,6.9,6.9,0,0,1-.6,2.4,31.7,31.7,0,0,0-1.1,3.3c-.3,1.4-.6,2.8-.9,4.5a41.7,41.7,0,0,0-.5,5.2,44.5,44.5,0,0,0,.3,5.3c.3,1.8.6,3.8.9,6.2a18.8,18.8,0,0,1-.1,6.7,11,11,0,0,1-2.8,5.6c-1.6,1.5-4.1,2.4-7.5,2.5a11.6,11.6,0,0,1-5.2-.8,6.4,6.4,0,0,1-3.1-2.4c-.8-1.1-1-2.8-.6-5a5,5,0,0,1,.4-1.3,3,3,0,0,1,.6-1.1,3.8,3.8,0,0,1,.9-.9h1.5l1.1.6A1.4,1.4,0,0,1,551.3,305.2Z"/><path class="cls-20" d="M347.7,368.2a27.7,27.7,0,0,1,3.5-6.7,15.7,15.7,0,0,1,3.8-3.9,10.4,10.4,0,0,1,3.9-1.6,7.4,7.4,0,0,1,3.4.4,3,3,0,0,1,1.7,1.2,5.6,5.6,0,0,1,.9,1.7,13.6,13.6,0,0,1,.2,2,5.5,5.5,0,0,1-.2,1.8c0,.2-.3.5-.7.7l-1,.4h-.4a.1.1,0,0,1-.1-.1q.2-1.7-.3-2.1c-.3-.4-.6-.6-.8-.6h-.7a3.7,3.7,0,0,0-1.5.8,13.6,13.6,0,0,0-2.1,2.4,34.3,34.3,0,0,0-2.8,5,15.4,15.4,0,0,0-1.2,3c-.1.4-.2.9-.4,1.5a7.5,7.5,0,0,0-.2,2.1,4.6,4.6,0,0,0,.5,2,2.5,2.5,0,0,0,1.6,1.4h.9a8.2,8.2,0,0,0,2.7-.1,13.3,13.3,0,0,0,2.4-1,9.1,9.1,0,0,0,1.9-1.3,21.1,21.1,0,0,0,1.5-1.5l.5-.7.4-.4q0-.2.3-.3c.5-.8,1.1-1.6,1.6-2.5l1.1-2.2a2.1,2.1,0,0,1,.4-.6,1.7,1.7,0,0,1,1.5-.5.9.9,0,0,1,.6.4,4.3,4.3,0,0,1,.1.5,2.4,2.4,0,0,1-.2.8c-.5,1.1-1.3,2.5-2.2,4.3l-1.6,2.5-.4.5-.5.7a24,24,0,0,1-4,3.6,9.1,9.1,0,0,1-5.6,2H354a10.5,10.5,0,0,1-4.6-1.3,7.7,7.7,0,0,1-2.5-2.6,7.4,7.4,0,0,1-.8-3,12.2,12.2,0,0,1,.1-3.3h0A34.3,34.3,0,0,1,347.7,368.2Z"/><path class="cls-20" d="M386.8,369.1l-2.3,4.6a42,42,0,0,1-3.3,4.9,15.8,15.8,0,0,1-4.2,3.6,5.8,5.8,0,0,1-7.2-.8,6.8,6.8,0,0,1-1.4-2.5,9.4,9.4,0,0,1-.7-3,18.2,18.2,0,0,1,0-3.3,25.7,25.7,0,0,1,.6-4c.4-1.3.7-2.4,1.1-3.4a29.2,29.2,0,0,1,1.4-3.1,18.1,18.1,0,0,1,3-4.3,9.4,9.4,0,0,1,3.2-2.3,4.3,4.3,0,0,1,3.9.5,7.6,7.6,0,0,1,1.9-1.2,4.7,4.7,0,0,1,2.1-.2,3.7,3.7,0,0,1,2.7,1.5,7.7,7.7,0,0,1,1.1,3,14.7,14.7,0,0,1-.1,3.6,22.4,22.4,0,0,1-.5,3.1,13.3,13.3,0,0,0,3.8-1.8l2.7-2.1.7-.6h.6a1,1,0,0,1,.2.7,1.7,1.7,0,0,1,0,1,3.6,3.6,0,0,1-.7,1.7,15.5,15.5,0,0,1-3.6,2.8A13.5,13.5,0,0,1,386.8,369.1Zm-13.1,3.4a10.6,10.6,0,0,0-.6,3.5,6.1,6.1,0,0,0,.4,1.9,1.3,1.3,0,0,0,1,1,2.4,2.4,0,0,0,2.2-.5,12,12,0,0,0,2.4-2.2,21.9,21.9,0,0,0,2.1-3.4,35.2,35.2,0,0,0,1.8-4,5.7,5.7,0,0,1-2.1-1.2,5.2,5.2,0,0,1-1.9-2.8,7.2,7.2,0,0,1-.4-3.3,11.2,11.2,0,0,0-1.9,2.9,39.2,39.2,0,0,0-1.6,3.6C374.6,369.4,374.1,370.9,373.7,372.5Zm7.9-10.6a3.1,3.1,0,0,0,.2,1.7,3.4,3.4,0,0,0,.6,1.2l.9.7.8.4c.7-2.4,1-4.2.7-5.4a1.5,1.5,0,0,0-.6-.9,1.2,1.2,0,0,0-1-.1c-.4,0-.7.3-1,.7A3,3,0,0,0,381.6,361.9Z"/><path class="cls-20" d="M395.6,369.8l3.4-5.3a37.9,37.9,0,0,1,3.7-4.8,14.8,14.8,0,0,1,3.6-3.2,2.9,2.9,0,0,1,3.2-.4l1.8,1a7.9,7.9,0,0,1,2,1.7,1.9,1.9,0,0,1,.4.9,4.1,4.1,0,0,1-.1,1,6.4,6.4,0,0,1-.6,1.6l-.9,1.7c-.5.8-1,1.8-1.5,2.8l-1.5,3.3a29.6,29.6,0,0,0-1,3.3,8.5,8.5,0,0,0-.4,2.5c.1.7.3,1.1.9,1.3a1.9,1.9,0,0,0,1.9-.6,8.1,8.1,0,0,0,2-2.1,17.8,17.8,0,0,0,1.7-2.7,10.3,10.3,0,0,0,1.2-2.3l.4-.6a1.9,1.9,0,0,1,1.5-.4c.5,0,.8.3.8.9a1.5,1.5,0,0,1-.2.8,17.7,17.7,0,0,1-1.4,2.7,32.4,32.4,0,0,1-2.1,3.5,27,27,0,0,1-2.5,3.4,8.8,8.8,0,0,1-2.8,2.4,5.8,5.8,0,0,1-1.7.6h-1.7l-1.6-.4a4.1,4.1,0,0,1-2.4-3.2,18.5,18.5,0,0,1-.1-5.3,33.9,33.9,0,0,1,1.5-6.1c.7-2.1,1.4-4,2-5.6H405a42.8,42.8,0,0,0-4.5,5.4,45.2,45.2,0,0,0-4.1,6.6,77.5,77.5,0,0,0-4,9c0,.4-.2.6-.3.6l-.5.2a6.1,6.1,0,0,1-2.6-.8,3.3,3.3,0,0,1-1.4-1.2,1.1,1.1,0,0,1-.4-.9c-.1-.3-.1-.4,0-.5a22.3,22.3,0,0,1,.4-3.4c.2-1.2.4-2.4.7-3.6s.5-2.4.8-3.5.6-2.2.9-3.1.5-1.5.8-2.2a18.9,18.9,0,0,1,.6-1.8,7.9,7.9,0,0,1,.4-1.2,16.9,16.9,0,0,1,.8-2.4,22,22,0,0,1,.9-2.1l.7-1.9a.1.1,0,0,1,.1-.1.8.8,0,0,1,.1-.4l.6-.7a.8.8,0,0,1,.8-.1l1.8.7a7.3,7.3,0,0,1,2.2,1.8l.2.3c.1.1.1.2.2.4s.1.4.1.6a3.8,3.8,0,0,1-.6,1.8v.2h0a2.8,2.8,0,0,0-.5,1,10.1,10.1,0,0,0-.7,1.5c-.2.4-.4.9-.7,1.4a5.6,5.6,0,0,0-.4,1.2,19.5,19.5,0,0,0-.8,2.2Z"/><path class="cls-20" d="M425.5,358c-.9,2-1.7,4.2-2.5,6.5s-1.4,4.8-2,7.5a13,13,0,0,0-.3,3.7v.2c.1,0,.1.1.1.2a1.4,1.4,0,0,0,.8,1.1,1.9,1.9,0,0,0,1.9-.6,8.1,8.1,0,0,0,2-2.1,17.8,17.8,0,0,0,1.7-2.7,20.2,20.2,0,0,0,1.3-2.3l.4-.6a1.7,1.7,0,0,1,1.4-.4c.5,0,.8.3.8.9a2.8,2.8,0,0,1-.1.8c-.5.9-1.1,2.2-2.1,3.8a37.6,37.6,0,0,1-3,4.7l-.9,1-1.6,1.6h-.2l-.2.2a3.5,3.5,0,0,1-1.2.7,5.8,5.8,0,0,1-1.4.3,2.8,2.8,0,0,1-1.2-.1,3.3,3.3,0,0,1-2.3-1.7,12.6,12.6,0,0,1-1.2-2.9,21.8,21.8,0,0,1-.5-3.8,4.8,4.8,0,0,1,0-1.7,9.7,9.7,0,0,1,.1-1.7c.1-1.2.3-2.4.5-3.5a17.7,17.7,0,0,1,.7-2.9c.2-1,.5-1.9.8-2.9,1-2.9,2.1-5.7,3.2-8.2s2.1-5,3.2-7.3H401.9c-.6,0-1-.1-1.2-.4s-.1-.3-.2-.5a3.8,3.8,0,0,1,.2-2.4,4.6,4.6,0,0,1,1.5-1.6,9,9,0,0,1,2.3-.8h2.7l9.5.4,9.5.4,2.5-4.6,2.1-3.5c.6-1,1.3-2,1.9-2.8a3.8,3.8,0,0,1,.9-.9,3.1,3.1,0,0,1,1-.5,1,1,0,0,1,1,.3,5.8,5.8,0,0,1,1.3,1.1,13.9,13.9,0,0,1,1.5,1.9,8.3,8.3,0,0,1,.8,2.2,3,3,0,0,1-.4,2.1,19.6,19.6,0,0,1-1.4,2l-2.4,3.1,7.1.3,9.5.3,10.8.4,10.8.3,9.6.2,7.3.2h.8l1,.2.8.4a.5.5,0,0,1,.4.5c0,.3-.3.4-.7.6l-1.7.4h-3.4l-7.3.2-9.6.2H431.9c-1.1,1.6-2.1,3.5-3.2,5.4S426.6,355.5,425.5,358Z"/><path class="cls-20" d="M457.1,368.5a.9.9,0,0,1,.8.9,2.2,2.2,0,0,1-.1.8l-1.4,2.8-2.1,3.5a28.5,28.5,0,0,1-2.5,3.3,10,10,0,0,1-2.8,2.4,4.5,4.5,0,0,1-1.8.7,4.3,4.3,0,0,1-1.6,0,4.2,4.2,0,0,1-3.9-2.5,10.7,10.7,0,0,1-.5-3.7,16.3,16.3,0,0,1-4.1,4.5,6.6,6.6,0,0,1-4.2,1.4,6.3,6.3,0,0,1-2.9-.8,5.7,5.7,0,0,1-2.2-2.4,9.4,9.4,0,0,1-.6-4.4,21.6,21.6,0,0,1,1.7-6.8,24.6,24.6,0,0,1,3.4-6.7,17.9,17.9,0,0,1,3.9-3.9A9.4,9.4,0,0,1,440,356a7.4,7.4,0,0,1,3.4.4,3.5,3.5,0,0,1,1.8,1.3,7.2,7.2,0,0,1,.9,2c.2-.6.5-1.1.7-1.6l.3-.7a2.2,2.2,0,0,1,.5-.8l.6-.6a.6.6,0,0,1,.7,0,6.2,6.2,0,0,1,1.9.9,10.7,10.7,0,0,1,2.3,2,1.5,1.5,0,0,1,.4.8,3.3,3.3,0,0,1,0,1,6.4,6.4,0,0,1-.6,1.6,7.5,7.5,0,0,0-1,1.7l-1.4,2.8-1.5,3.3a34.3,34.3,0,0,0-1.2,3.3,12.9,12.9,0,0,0-.3,2.5,1.5,1.5,0,0,0,.9,1.3,2.1,2.1,0,0,0,1.9-.5,20.3,20.3,0,0,0,2-2.1,24.6,24.6,0,0,0,1.7-2.7l1.3-2.3c0-.2.2-.4.4-.6A1.5,1.5,0,0,1,457.1,368.5Zm-13.8-1.8a23.2,23.2,0,0,0,.6-2.7,7.1,7.1,0,0,0-.1-1.6c-.2-.4-.3-.7-.5-.8l-.5-.3H442a4.4,4.4,0,0,0-1.5.8,13.6,13.6,0,0,0-2.1,2.4,47.4,47.4,0,0,0-2.8,5,24.8,24.8,0,0,0-1.8,5.2,9.4,9.4,0,0,0-.2,2.7,1.4,1.4,0,0,0,1.1,1.1c1,.2,2-.3,3-1.4a28.1,28.1,0,0,0,2.6-3.8,59.2,59.2,0,0,0,2.7-5.6c0-.1,0-.1.1-.2Z"/><path class="cls-20" d="M481.1,382.5a4.1,4.1,0,0,1-2.4-3.2,18.5,18.5,0,0,1-.1-5.3,33.9,33.9,0,0,1,1.5-6.1c.7-2.1,1.4-4,2.1-5.6H482c-1.1,1.4-2.2,3.1-3.4,5s-2.1,3.6-3.3,6a88.1,88.1,0,0,0-3.6,8.4l-.5.6-.6.4h-.9l-1.1-.3-.8-.4a4.5,4.5,0,0,1-1.9-3.5,18.5,18.5,0,0,1,.2-5.2,33.1,33.1,0,0,1,1.5-5.8c.7-2,1.3-3.8,2-5.3h-.2a42.1,42.1,0,0,0-3.6,5.4q-1.7,2.7-3.6,6.6c-1.3,2.6-2.5,5.6-3.8,9q0,.6-.3.6l-.5.2a5.3,5.3,0,0,1-2.5-.8,4.4,4.4,0,0,1-1.5-1.2,1.1,1.1,0,0,1-.4-.9c-.1-.3-.1-.4,0-.5a22.3,22.3,0,0,1,.4-3.4c.2-1.2.4-2.4.7-3.6l.9-3.5c.3-1.2.6-2.2.9-3.1a14.2,14.2,0,0,1,.7-2.2,18.9,18.9,0,0,1,.6-1.8c.2-.5.3-.9.4-1.2s.5-1.7.8-2.4a22,22,0,0,1,.9-2.1l.7-1.9a.1.1,0,0,1,.1-.1.8.8,0,0,1,.1-.4l.6-.7c.2-.2.5-.2.9-.1l1.8.7a8.7,8.7,0,0,1,2.2,1.8.4.4,0,0,1,.1.3c.1.1.1.2.2.4s.1.4.1.6-.1.5-.1.8a2.4,2.4,0,0,1-.5,1,.4.4,0,0,1-.1.3l-.5,1-.7,1.5a14.7,14.7,0,0,1-.6,1.4,5.6,5.6,0,0,0-.4,1.2l-.8,1.9c.9-1.6,1.8-3.1,2.8-4.6a24.7,24.7,0,0,1,2.9-3.9,10,10,0,0,1,3-2.3,2.7,2.7,0,0,1,2.6-.2l1.8,1a7.9,7.9,0,0,1,2,1.7,1.9,1.9,0,0,1,.4.9v1a6.4,6.4,0,0,1-.6,1.6,5.4,5.4,0,0,0-.7,1.2,18,18,0,0,0-1.1,2l-1.2,2.4c-.4.9-.8,1.8-1.1,2.7.9-1.8,1.9-3.6,3-5.6a43.3,43.3,0,0,1,3.4-5,14.1,14.1,0,0,1,3.6-3.4,2.8,2.8,0,0,1,3.1-.5l1.8,1a7.9,7.9,0,0,1,2,1.7,1.9,1.9,0,0,1,.4.9v1a6.4,6.4,0,0,1-.6,1.6l-1,1.7-1.4,2.8-1.5,3.3a31.8,31.8,0,0,0-1.1,3.3,8.5,8.5,0,0,0-.4,2.5c.1.7.3,1.1.9,1.3a2.1,2.1,0,0,0,2-.6,10,10,0,0,0,1.9-2.1,12.7,12.7,0,0,0,1.8-2.7l1.2-2.3.4-.6a1.8,1.8,0,0,1,1.5-.4.6.6,0,0,1,.6.3,1.1,1.1,0,0,1,.1.6,2.8,2.8,0,0,1-.1.8l-1.4,2.7a32.4,32.4,0,0,1-2.1,3.5c-.8,1.2-1.6,2.3-2.5,3.4a9,9,0,0,1-2.9,2.4,5.8,5.8,0,0,1-1.7.6h-1.7Z"/><path class="cls-20" d="M503.4,358.9a1,1,0,0,1,.4.8,1.7,1.7,0,0,1,0,1,6.4,6.4,0,0,1-.6,1.6l-1,1.7-1.4,2.8-1.5,3.3a18.2,18.2,0,0,0-1.1,3.3,5.9,5.9,0,0,0-.3,2.5,1.3,1.3,0,0,0,.8,1.3,2,2,0,0,0,1.9-.5,13.4,13.4,0,0,0,2-2.1,25.3,25.3,0,0,0,1.8-2.7l1.2-2.3a2.1,2.1,0,0,1,.4-.6,1.7,1.7,0,0,1,1.5-.5.9.9,0,0,1,.8.9,2.4,2.4,0,0,1-.2.8l-1.4,2.8c-.6,1.1-1.3,2.3-2.1,3.5a28.5,28.5,0,0,1-2.5,3.3,8.8,8.8,0,0,1-2.8,2.4,4.5,4.5,0,0,1-1.8.7,4.3,4.3,0,0,1-1.6,0,4.1,4.1,0,0,1-1.6-.3,3.6,3.6,0,0,1-2.1-2.1,8.8,8.8,0,0,1-.7-3.3,21,21,0,0,1,.4-4.1c.3-1.5.7-2.9,1.1-4.4a77.6,77.6,0,0,1,4.5-11.3,2,2,0,0,1,.4-.8l.6-.6c.2-.1.5-.2.7,0a6.5,6.5,0,0,1,2,.9A10.2,10.2,0,0,1,503.4,358.9Zm-2.2-5.4a2.4,2.4,0,0,1-.6-2.3,8.8,8.8,0,0,1,.7-2l.8-1.2.6-.9.5-.7a3.6,3.6,0,0,1,.8-.9l.8-.4a1.1,1.1,0,0,1,1,.3,4.7,4.7,0,0,1,1.1,1,10.1,10.1,0,0,1,1.3,1.6,7.3,7.3,0,0,1,.7,1.9,3.1,3.1,0,0,1-.3,1.9,7.7,7.7,0,0,1-.9,1.3l-1.7,2.2a1,1,0,0,1-1,.4,2.5,2.5,0,0,1-1.4-.4l-1.4-.8A3.2,3.2,0,0,1,501.2,353.5Z"/><path class="cls-20" d="M512,369.8c1-1.7,2.1-3.5,3.4-5.3a50,50,0,0,1,3.6-4.8,19.7,19.7,0,0,1,3.6-3.2,3,3,0,0,1,3.2-.4,11.8,11.8,0,0,1,1.9,1,7.5,7.5,0,0,1,1.9,1.7,1.3,1.3,0,0,1,.4.9,1.7,1.7,0,0,1,0,1,6.4,6.4,0,0,1-.6,1.6,15.3,15.3,0,0,0-1,1.7l-1.4,2.8-1.5,3.3a18.2,18.2,0,0,0-1.1,3.3,8,8,0,0,0-.3,2.5,1.3,1.3,0,0,0,.8,1.3,2.1,2.1,0,0,0,2-.6,7.8,7.8,0,0,0,1.9-2.1,18.1,18.1,0,0,0,1.8-2.7l1.2-2.3c0-.2.2-.4.4-.6a1.7,1.7,0,0,1,1.5-.4c.5,0,.8.3.8.9a4.5,4.5,0,0,1-.2.8c-.3.7-.8,1.6-1.4,2.7a32.4,32.4,0,0,1-2.1,3.5c-.8,1.2-1.6,2.3-2.5,3.4a8.8,8.8,0,0,1-2.8,2.4l-1.8.6h-1.6l-1.6-.4a4,4,0,0,1-2.5-3.2,15.7,15.7,0,0,1,0-5.3,26.9,26.9,0,0,1,1.4-6.1c.7-2.1,1.4-4,2.1-5.6h-.1a36.1,36.1,0,0,0-4.6,5.4,56.7,56.7,0,0,0-4,6.6,54,54,0,0,0-4,9c-.1.4-.2.6-.4.6l-.4.2a5.7,5.7,0,0,1-2.6-.8,3.1,3.1,0,0,1-1.5-1.2,1.1,1.1,0,0,1-.4-.9v-.5c.1-1,.2-2.2.4-3.4s.5-2.4.7-3.6l.9-3.5c.3-1.2.6-2.2.8-3.1s.6-1.5.8-2.2a9.4,9.4,0,0,0,.6-1.8c.1-.2.2-.6.4-1.2s.6-1.7.9-2.4.5-1.5.8-2.1a14.6,14.6,0,0,0,.7-1.9h.1l.2-.4.5-.7a.9.9,0,0,1,.9-.1l1.8.7a6,6,0,0,1,2.1,1.8q.1,0,.3.3c0,.1.1.2.1.4a1.3,1.3,0,0,1,.1.6,3.8,3.8,0,0,1-.6,1.8v.2h0c-.2.1-.3.4-.6,1a10.1,10.1,0,0,1-.7,1.5l-.6,1.4a6.1,6.1,0,0,0-.5,1.2c-.3.7-.5,1.5-.8,2.2Z"/><path class="cls-20" d="M560.6,368.5a.9.9,0,0,1,.8.9,2.2,2.2,0,0,1-.1.8c-.3.7-.8,1.6-1.4,2.8s-1.4,2.3-2.1,3.5a28.5,28.5,0,0,1-2.5,3.3,10,10,0,0,1-2.8,2.4,4.5,4.5,0,0,1-1.8.7,4.3,4.3,0,0,1-1.6,0,4.2,4.2,0,0,1-3.9-2.5,10.7,10.7,0,0,1-.5-3.7,16.3,16.3,0,0,1-4.1,4.5,6.6,6.6,0,0,1-4.2,1.4,6.3,6.3,0,0,1-2.9-.8,5.7,5.7,0,0,1-2.2-2.4,9.4,9.4,0,0,1-.6-4.4,21.6,21.6,0,0,1,1.7-6.8,24.6,24.6,0,0,1,3.4-6.7,17.9,17.9,0,0,1,3.9-3.9,9.4,9.4,0,0,1,3.8-1.6,7.4,7.4,0,0,1,3.4.4,3.5,3.5,0,0,1,1.8,1.3,7.2,7.2,0,0,1,.9,2c.2-.6.5-1.1.7-1.6l.3-.7a2.2,2.2,0,0,1,.5-.8l.6-.6a.6.6,0,0,1,.7,0,6.2,6.2,0,0,1,1.9.9,10.7,10.7,0,0,1,2.3,2,1.5,1.5,0,0,1,.4.8,3.3,3.3,0,0,1,0,1,6.4,6.4,0,0,1-.6,1.6,7.5,7.5,0,0,0-1,1.7l-1.4,2.8-1.5,3.3a34.3,34.3,0,0,0-1.2,3.3,12.9,12.9,0,0,0-.3,2.5,1.5,1.5,0,0,0,.9,1.3,2.1,2.1,0,0,0,1.9-.5,20.3,20.3,0,0,0,2-2.1,24.6,24.6,0,0,0,1.7-2.7l1.3-2.3c0-.2.2-.4.4-.6A1.5,1.5,0,0,1,560.6,368.5Zm-13.8-1.8a23.2,23.2,0,0,0,.6-2.7,7.1,7.1,0,0,0-.1-1.6c-.2-.4-.3-.7-.5-.8l-.5-.3h-.8a5.6,5.6,0,0,0-1.5.8,13.6,13.6,0,0,0-2.1,2.4,47.4,47.4,0,0,0-2.8,5,24.8,24.8,0,0,0-1.8,5.2,9.4,9.4,0,0,0-.2,2.7,1.4,1.4,0,0,0,1.1,1.1c1,.2,2-.3,3-1.4a28.1,28.1,0,0,0,2.6-3.8,59.2,59.2,0,0,0,2.7-5.6c0-.1,0-.1.1-.2Z"/><path class="cls-20" d="M559.3,368.2a27.7,27.7,0,0,1,3.5-6.7,14.4,14.4,0,0,1,3.9-3.9,9.4,9.4,0,0,1,3.8-1.6,7.4,7.4,0,0,1,3.4.4,3,3,0,0,1,1.7,1.2,5.6,5.6,0,0,1,.9,1.7,13.6,13.6,0,0,1,.2,2,10.9,10.9,0,0,1-.1,1.8,1.9,1.9,0,0,1-.8.7l-1,.4h-.4a.1.1,0,0,1-.1-.1q.2-1.7-.3-2.1c-.3-.4-.5-.6-.8-.6h-.7a3.7,3.7,0,0,0-1.5.8,13.6,13.6,0,0,0-2.1,2.4,47.4,47.4,0,0,0-2.8,5,15.4,15.4,0,0,0-1.2,3c-.1.4-.2.9-.4,1.5a14.9,14.9,0,0,0-.2,2.1,4.6,4.6,0,0,0,.5,2,2.5,2.5,0,0,0,1.6,1.4h.9a8.2,8.2,0,0,0,2.7-.1,13.3,13.3,0,0,0,2.4-1,9.1,9.1,0,0,0,1.9-1.3,21.1,21.1,0,0,0,1.5-1.5l.5-.7.4-.4c.1-.1.1-.2.3-.3a21.3,21.3,0,0,0,1.6-2.5l1.1-2.2a2.1,2.1,0,0,1,.4-.6,1.7,1.7,0,0,1,1.5-.5.9.9,0,0,1,.6.4.7.7,0,0,1,.1.5,2.4,2.4,0,0,1-.2.8c-.5,1.1-1.3,2.5-2.2,4.3a21.7,21.7,0,0,1-1.6,2.5l-.4.5-.5.7a24,24,0,0,1-4,3.6,8.9,8.9,0,0,1-5.6,2h-2.2a10.9,10.9,0,0,1-4.6-1.3,7.7,7.7,0,0,1-2.5-2.6,9.5,9.5,0,0,1-.8-3,12.2,12.2,0,0,1,.1-3.3h0A34.3,34.3,0,0,1,559.3,368.2Z"/><path class="cls-20" d="M590.5,358.9a1.5,1.5,0,0,1,.4.8,4.1,4.1,0,0,1-.1,1,6.4,6.4,0,0,1-.6,1.6l-1,1.7-1.4,2.8-1.5,3.3a31.8,31.8,0,0,0-1.1,3.3,5.9,5.9,0,0,0-.3,2.5,1.2,1.2,0,0,0,.9,1.3,2.1,2.1,0,0,0,1.9-.5,19.9,19.9,0,0,0,1.9-2.1,15.9,15.9,0,0,0,1.8-2.7l1.2-2.3a2.1,2.1,0,0,1,.4-.6,1.7,1.7,0,0,1,1.5-.5.9.9,0,0,1,.8.9,2.4,2.4,0,0,1-.2.8l-1.4,2.8c-.6,1.1-1.3,2.3-2.1,3.5a28.5,28.5,0,0,1-2.5,3.3,8.8,8.8,0,0,1-2.8,2.4,4.7,4.7,0,0,1-1.7.7,4.8,4.8,0,0,1-1.7,0,4.1,4.1,0,0,1-1.6-.3,4.3,4.3,0,0,1-2.1-2.1,11.4,11.4,0,0,1-.7-3.3,21,21,0,0,1,.4-4.1c.3-1.5.7-2.9,1.1-4.4a91,91,0,0,1,4.5-11.3,1.4,1.4,0,0,1,.5-.8l.5-.6a.8.8,0,0,1,.8,0,7.5,7.5,0,0,1,1.9.9A10.7,10.7,0,0,1,590.5,358.9Zm-2.3-5.4a2.4,2.4,0,0,1-.6-2.3,5.5,5.5,0,0,1,.8-2,12.7,12.7,0,0,1,.7-1.2,2.4,2.4,0,0,0,.6-.9l.5-.7a3.6,3.6,0,0,1,.8-.9l.8-.4a1.1,1.1,0,0,1,1,.3l1.2,1,1.2,1.6a7.3,7.3,0,0,1,.7,1.9,3.1,3.1,0,0,1-.3,1.9,7.7,7.7,0,0,1-.9,1.3l-1.7,2.2a1,1,0,0,1-1,.4,2.7,2.7,0,0,1-1.4-.4l-1.4-.8A4.7,4.7,0,0,1,588.2,353.5Z"/><path class="cls-20" d="M611.3,369.1c-.6,1.3-1.4,2.8-2.3,4.6a26.3,26.3,0,0,1-3.3,4.9,15.4,15.4,0,0,1-4.1,3.6,6.1,6.1,0,0,1-4.9.6,5.7,5.7,0,0,1-2.4-1.4,8.6,8.6,0,0,1-1.4-2.5,13.2,13.2,0,0,1-.7-3,18.2,18.2,0,0,1,0-3.3,25.7,25.7,0,0,1,.7-4,23.1,23.1,0,0,1,1-3.4c.5-1.1.9-2.1,1.4-3.1a18.1,18.1,0,0,1,3-4.3,10.4,10.4,0,0,1,3.2-2.3,4.5,4.5,0,0,1,4,.5,5.7,5.7,0,0,1,1.8-1.2,5,5,0,0,1,2.1-.2,3.7,3.7,0,0,1,2.7,1.5,6.4,6.4,0,0,1,1.1,3,21.6,21.6,0,0,1,0,3.6c-.2,1.2-.4,2.2-.6,3.1a13.8,13.8,0,0,0,3.9-1.8l2.6-2.1a2.1,2.1,0,0,1,.8-.6h.5a1.5,1.5,0,0,1,.3.7v1a3.8,3.8,0,0,1-.8,1.7,12.2,12.2,0,0,1-3.6,2.8A12.9,12.9,0,0,1,611.3,369.1Zm-13.1,3.4a14.1,14.1,0,0,0-.6,3.5,6.1,6.1,0,0,0,.4,1.9c.3.6.6.9,1,1a2.6,2.6,0,0,0,2.3-.5,9.5,9.5,0,0,0,2.3-2.2,22.2,22.2,0,0,0,2.2-3.4l1.8-4a5.3,5.3,0,0,1-2.2-1.2,5.9,5.9,0,0,1-1.9-2.8,7.2,7.2,0,0,1-.4-3.3,11.2,11.2,0,0,0-1.9,2.9,22.8,22.8,0,0,0-1.5,3.6A29.7,29.7,0,0,0,598.2,372.5ZM616.8,350l-.5,1.3a6.4,6.4,0,0,1-.8,1.4,2.4,2.4,0,0,1-1,1,1.1,1.1,0,0,1-1.1.2l-1.9-1.1-2.3-1.5-1.9-1.5-1-.8c-.4-.5-.7-.7-.8-.7s.1-.3.4-1,.5-.4,1.1-.6a7.8,7.8,0,0,1,2.3-.5,11.7,11.7,0,0,1,2.7-.1,7.5,7.5,0,0,1,2.6.4,4.9,4.9,0,0,1,1.8,1.3A2.6,2.6,0,0,1,616.8,350Zm-10.7,11.9a4.4,4.4,0,0,0,.2,1.7,6.7,6.7,0,0,0,.6,1.2l.9.7.8.4a12,12,0,0,0,.8-5.4,2.2,2.2,0,0,0-.7-.9,1.1,1.1,0,0,0-1-.1,1.5,1.5,0,0,0-1,.7A3,3,0,0,0,606.1,361.9Z"/><path class="cls-20" d="M71,234.3a11.1,11.1,0,0,1,.7-3.7,12.9,12.9,0,0,1,1.8-3.2,9.3,9.3,0,0,1,3.6-2.6,16.9,16.9,0,0,1,3.2-1.1l3.9-.8c.1-1,.3-2.1.4-3l.6-2.8a10.9,10.9,0,0,1,2.3-4.7,10,10,0,0,1,3.2-2.4,10.7,10.7,0,0,1,4-1,12.2,12.2,0,0,1,4.7.7,11.3,11.3,0,0,1,3.6,2.4,9.5,9.5,0,0,1,2.6,5l.5,2.6c.2.9.4,1.8.5,2.6a57.1,57.1,0,0,1,6.4,1.2,11.3,11.3,0,0,1,4.8,2.3,10,10,0,0,1,2.4,3.2,10.7,10.7,0,0,1,1,4,11.3,11.3,0,0,1-3.2,8.3,9.5,9.5,0,0,1-5,2.5l-2.6.6-2.6.5q-.3,3-.6,4.5c-.1.6-.2,1.2-.3,1.6a8.1,8.1,0,0,1-2.3,5,12.1,12.1,0,0,1-3.7,2.5,12.7,12.7,0,0,1-4.8.7,11.7,11.7,0,0,1-3.8-.7,12.9,12.9,0,0,1-3.2-1.8,9.3,9.3,0,0,1-2.6-3.6,15,15,0,0,1-1-3.2,35.3,35.3,0,0,1-.8-4l-2.4-.2-1.8-.2-1.4-.3a8.1,8.1,0,0,1-5-2.3,11.7,11.7,0,0,1-2.4-3.7A12.9,12.9,0,0,1,71,234.3Z"/><path class="cls-20" d="M22.4,310.3v-1.8c0-1.6,0-3.1.1-4.5a46.2,46.2,0,0,1,.7-6.5,6.7,6.7,0,0,1,1-2.9,6.5,6.5,0,0,1,1.7-2,10.2,10.2,0,0,1,2.2-1.4,11.3,11.3,0,0,1,2.4-.8,21.2,21.2,0,0,1,5.2-.6h1.1l4.6.4,3.4.7a9.1,9.1,0,0,1,2.4,1,5.8,5.8,0,0,1,1.5,1.1,3.5,3.5,0,0,1,1.3,2.7,6.2,6.2,0,0,1-.5,2.5,3.9,3.9,0,0,1-1.4,1.7,5.6,5.6,0,0,1-2,1.2,8.6,8.6,0,0,1-2.3.6,20,20,0,0,1-4.4.4H37.5a11,11,0,0,1,4.1,1.3,6.4,6.4,0,0,1,1.9,1.6,3.5,3.5,0,0,1,.5,1.8v.3a3.6,3.6,0,0,1-.8,2.4,8.4,8.4,0,0,1-1.8,1.5,14.5,14.5,0,0,1-2.5,1h.7a16.2,16.2,0,0,1,3.2.2,10.6,10.6,0,0,1,2.8.6,7.5,7.5,0,0,1,2,1,4.7,4.7,0,0,1,1.3,1.1,4.3,4.3,0,0,1,1.2,3.1,5.3,5.3,0,0,1-.6,1.9,6.7,6.7,0,0,1-1.5,1.4,6.4,6.4,0,0,1-2,1.1l-2.2.6a23.5,23.5,0,0,1-6.2.7H36.4l-3.3-.2a23.9,23.9,0,0,1-3.5-.7,22.6,22.6,0,0,1-2.6-1.1,7,7,0,0,1-1.8-1.3,6.3,6.3,0,0,1-2.2-3.5A35.2,35.2,0,0,1,22.4,310.3Z"/><path class="cls-20" d="M53.8,316.8a6.8,6.8,0,0,1,.4-2.6,5.7,5.7,0,0,1,1.2-1.8,6.6,6.6,0,0,1,1.7-1.2l2-.7a12.9,12.9,0,0,1,2.9-.3l2.4.2a16,16,0,0,1-3.5-1.2,13,13,0,0,1-2.6-1.7,9.5,9.5,0,0,1-1.6-1.9,11.8,11.8,0,0,1-1-1.9,8.9,8.9,0,0,1-.7-3.6c0-.4.1-.8.1-1.2a10.1,10.1,0,0,1,2.2-5.4A8,8,0,0,1,59,292a9.3,9.3,0,0,1,1.9-1.1,13,13,0,0,1,4.9-.9h1.9a22.7,22.7,0,0,1,5,.5,10.1,10.1,0,0,1,3.9,1.7,4.4,4.4,0,0,1,1.6,2.3,11.1,11.1,0,0,1,.2,1.7v.5a4,4,0,0,1-.7,2,4.7,4.7,0,0,1-1.4,1.4l-1.9,1a8.5,8.5,0,0,1-2.2.4,15.3,15.3,0,0,1-3,.3l-2.6-.2a40.3,40.3,0,0,1,4.6,1,21.8,21.8,0,0,1,3.4,1.4,24.9,24.9,0,0,1,2.4,1.7,11.9,11.9,0,0,1,1.5,1.8,8.4,8.4,0,0,1,1.5,4.6,13.8,13.8,0,0,1-.5,3.7,11.2,11.2,0,0,1-1.4,2.9,12.6,12.6,0,0,1-2,2l-2.2,1.4a19.5,19.5,0,0,1-6.2,1.5H63.1a14.8,14.8,0,0,1-3.5-.6,9.8,9.8,0,0,1-2.5-1.1,5.9,5.9,0,0,1-1.7-1.3A5.7,5.7,0,0,1,53.8,316.8Z"/><path class="cls-20" d="M84.3,309.6v-1.7a28.9,28.9,0,0,1,.2-4.3,32.7,32.7,0,0,1,1.2-5.6,10.7,10.7,0,0,1,1.6-3.2,15,15,0,0,1,2-2.3,15.8,15.8,0,0,1,2.4-1.5,12.2,12.2,0,0,1,2.4-1,15.1,15.1,0,0,1,4.8-.7H100a20.2,20.2,0,0,1,4.6.7,23.2,23.2,0,0,1,3.5,1.4,12.9,12.9,0,0,1,2.5,2,17.4,17.4,0,0,1,1.8,2.2,14.1,14.1,0,0,1,1.8,5.9,1.7,1.7,0,0,1,.1.7,14.6,14.6,0,0,1-.5,3.8,9.6,9.6,0,0,1-1.6,3.2,6.9,6.9,0,0,1-2.3,2.2,9.4,9.4,0,0,1-2.6,1.4,17.6,17.6,0,0,1-5.8.9H100a16.9,16.9,0,0,1,.3,3,7.9,7.9,0,0,1-.2,2.3,5.4,5.4,0,0,1-.8,1.7,5.8,5.8,0,0,1-1,1.2,7,7,0,0,1-3.3,1.3H93.8a7.4,7.4,0,0,1-3.4-.8,11.8,11.8,0,0,1-2.9-2.3,12.7,12.7,0,0,1-2-3.6A31.1,31.1,0,0,1,84.3,309.6Zm14.3-5.7a2.2,2.2,0,0,0,1.3.4,1.9,1.9,0,0,0,1.3-.5,1.7,1.7,0,0,0,.5-1.3,1.7,1.7,0,0,0-.5-1.3,1.5,1.5,0,0,0-1.3-.6,1.8,1.8,0,0,0-1.4.6,1.3,1.3,0,0,0-.5,1.1A1.8,1.8,0,0,0,98.6,303.9Z"/><path class="cls-20" d="M117.9,314a38.8,38.8,0,0,1,.8-6.2,38,38,0,0,1,1.5-5.1,40.9,40.9,0,0,1,2-4.2c.7-1.2,1.4-2.4,2.1-3.4a15.1,15.1,0,0,1,3.2-3.4,11.7,11.7,0,0,1,3-1.7,6.5,6.5,0,0,1,2.3-.6H135a6.5,6.5,0,0,1,2.3.6,11.7,11.7,0,0,1,3,1.7,13.2,13.2,0,0,1,3.2,3.4c.7,1,1.4,2.2,2.1,3.4a40.9,40.9,0,0,1,2,4.2,38,38,0,0,1,1.5,5.1,38.8,38.8,0,0,1,.8,6.2v1.1a12.4,12.4,0,0,1-.3,2.7,4.2,4.2,0,0,1-.4,1.5,7.1,7.1,0,0,1-.8,1.5,4.3,4.3,0,0,1-1.1,1.2,4.6,4.6,0,0,1-1.7.9,8.6,8.6,0,0,1-2.3.5H141a6.3,6.3,0,0,1-2.5-.9,9,9,0,0,1-2.3-2,12.8,12.8,0,0,1-1.4-2.1c-.3-.7-.5-1.4-.7-2s-.2-.9-.2-1.1-.1.5-.2,1.1a10.4,10.4,0,0,1-.8,2,12,12,0,0,1-1.3,2.1,9,9,0,0,1-2.3,2,6.3,6.3,0,0,1-2.5.9h-2.3a8.6,8.6,0,0,1-2.3-.5,4.6,4.6,0,0,1-1.7-.9,4.3,4.3,0,0,1-1.1-1.2,6.9,6.9,0,0,1-.7-1.5,4.4,4.4,0,0,1-.5-1.5,15.3,15.3,0,0,1-.3-3Zm14.9-4.7a2.5,2.5,0,0,0,1.3.4,1.9,1.9,0,0,0,1.3-.5,1.5,1.5,0,0,0,.5-1.3,2.3,2.3,0,0,0-.4-1.4,1.9,1.9,0,0,0-2.8,0,2.1,2.1,0,0,0-.5,1.2A2,2,0,0,0,132.8,309.3Z"/><path class="cls-20" d="M152.9,305.3c0-1.6.1-3.1.2-4.7a19.8,19.8,0,0,1,1.2-5.2,18.6,18.6,0,0,1,1-2,7.5,7.5,0,0,1,1.5-1.6,7.2,7.2,0,0,1,2.1-1.2,5.9,5.9,0,0,1,2.7-.5,8,8,0,0,1,3.4,1.1l1.4,1.1a8.4,8.4,0,0,1,1.3,1.7,17.4,17.4,0,0,1,1,2.3,22.1,22.1,0,0,1,.7,3c.2,2.2.4,4.3.4,6.2v5.2c-.1,1.8-.3,3.4-.4,4.9a13.1,13.1,0,0,1-1.3,4.1,11.9,11.9,0,0,1-.9,1.5,8.6,8.6,0,0,1-1.4,1.3,6.1,6.1,0,0,1-1.8.9,8.8,8.8,0,0,1-2.4.3,7.1,7.1,0,0,1-2.6-.4,8.2,8.2,0,0,1-2-1.2,5.7,5.7,0,0,1-1.5-1.6l-1-1.8a18.3,18.3,0,0,1-1.2-5,25.8,25.8,0,0,1-.3-4.2,23.5,23.5,0,0,1-.1-2.6Z"/><path class="cls-20" d="M15.1,373.4a6.8,6.8,0,0,1,.5-2.7,4.2,4.2,0,0,1,1.1-1.8,6.6,6.6,0,0,1,1.7-1.2,7.6,7.6,0,0,1,2-.6,13.6,13.6,0,0,1,2.9-.3h2.5a15.2,15.2,0,0,1-3.6-1.2,12,12,0,0,1-2.5-1.6,9.7,9.7,0,0,1-1.7-1.9,18.6,18.6,0,0,1-1-2,10.3,10.3,0,0,1-.6-3.5v-1.3a11.8,11.8,0,0,1,.9-3,7.3,7.3,0,0,1,1.3-2.3,12.9,12.9,0,0,1,1.8-1.6,8.1,8.1,0,0,1,1.8-1,13,13,0,0,1,4.9-.9H29a17.9,17.9,0,0,1,5,.5,9.5,9.5,0,0,1,3.9,1.6,4.2,4.2,0,0,1,1.6,2.3,6.7,6.7,0,0,1,.3,1.8c0,.2-.1.3-.1.5a4.3,4.3,0,0,1-.7,2,4.7,4.7,0,0,1-1.4,1.4,6.6,6.6,0,0,1-1.9.9,7.9,7.9,0,0,1-2.2.5,14.2,14.2,0,0,1-3,.2H27.9a24.4,24.4,0,0,1,4.6,1,18.4,18.4,0,0,1,3.4,1.4,9.2,9.2,0,0,1,2.4,1.7,12.9,12.9,0,0,1,1.6,1.8,8.2,8.2,0,0,1,1.4,4.5,14.6,14.6,0,0,1-.5,3.8,8.2,8.2,0,0,1-1.4,2.8,10,10,0,0,1-2,2.1l-2.2,1.4a18.8,18.8,0,0,1-6.1,1.5H24.4a27,27,0,0,1-3.5-.7,11.8,11.8,0,0,1-2.5-1,5.6,5.6,0,0,1-1.6-1.4A5.3,5.3,0,0,1,15.1,373.4Z"/><path class="cls-20" d="M44.7,366.9a10.9,10.9,0,0,1-.1-1.8c0-1.6.1-3.1.2-4.5s.3-4.4.6-6.6a10.2,10.2,0,0,1,1-2.8,7,7,0,0,1,1.8-2,6.4,6.4,0,0,1,2.2-1.4,11.7,11.7,0,0,1,2.4-.9,21.2,21.2,0,0,1,5.2-.6h1.1a30.3,30.3,0,0,1,4.6.4,15.7,15.7,0,0,1,3.4.7l2.4.9,1.5,1.1a3.5,3.5,0,0,1,1.3,2.7,6.3,6.3,0,0,1-.5,2.6,7.5,7.5,0,0,1-1.4,1.7,4.9,4.9,0,0,1-2,1.1l-2.3.7a20.3,20.3,0,0,1-4.5.4H59.8a14.1,14.1,0,0,1,4.1,1.3,5.9,5.9,0,0,1,1.8,1.6,3.2,3.2,0,0,1,.6,1.8v.3a3.6,3.6,0,0,1-.8,2.4,6,6,0,0,1-1.8,1.5,6.9,6.9,0,0,1-2.5,1h.7l3.1.2a17.7,17.7,0,0,1,2.9.7l2,.9,1.3,1.1a4.5,4.5,0,0,1,1.2,3.1,4.3,4.3,0,0,1-.7,2,4.7,4.7,0,0,1-1.4,1.4,7.5,7.5,0,0,1-2,1l-2.3.7a28,28,0,0,1-6.1.6H58.6l-3.3-.2-3.5-.8a15.6,15.6,0,0,1-2.6-1.1,8.3,8.3,0,0,1-1.7-1.2,6.9,6.9,0,0,1-2.2-3.6A34.2,34.2,0,0,1,44.7,366.9Z"/><path class="cls-20" d="M74.8,363.2a22.2,22.2,0,0,1,1.3-6.8,24.3,24.3,0,0,1,1.4-2.8,12.8,12.8,0,0,1,2.1-2.8l3-2.4a20.4,20.4,0,0,1,4.2-1.9,20.5,20.5,0,0,1,4.9-.6h.7l2.5.3a9,9,0,0,1,2.7.7,11.1,11.1,0,0,1,2.7,1.3,11.6,11.6,0,0,1,2.5,2,7.2,7.2,0,0,1,1.2,2.1,7.3,7.3,0,0,1,.4,2.3,6.1,6.1,0,0,1-.7,2.8,4.4,4.4,0,0,1-1.6,1.7,7,7,0,0,1-2.4.6h-.3a10.3,10.3,0,0,1-3.7-.9l-2.2-.3h-.7a3.6,3.6,0,0,0-2.1,1.1,4.3,4.3,0,0,0-.9,3.1,5.5,5.5,0,0,0,.7,2.8l.7.9a2.3,2.3,0,0,0,1.2.6,2.2,2.2,0,0,0,1.2.2h.3a5.8,5.8,0,0,0,2-.5,3.6,3.6,0,0,1-1.5-1,10.4,10.4,0,0,1-.5-1.2,3.2,3.2,0,0,1,.2-1.3,2.4,2.4,0,0,1,1.5-1.2,10.6,10.6,0,0,1,2.8-.6h3.2l2.9.3,1.4.4.9.5.7.6a5.2,5.2,0,0,1,.7,1.5,9.7,9.7,0,0,1,.5,2,15,15,0,0,1,.2,2.2,16.9,16.9,0,0,1,.1,2.3c0,1.7-.1,3.6-.3,5.6a5.9,5.9,0,0,1-.9,3,4.7,4.7,0,0,1-1.7,1.5,4.4,4.4,0,0,1-2.3.6l-2-.2a4.8,4.8,0,0,1-1.8-.7,4.7,4.7,0,0,1-1.3-1.5,5.3,5.3,0,0,1-.4-2.3,10,10,0,0,1-1.5,1.3,13.3,13.3,0,0,1-2.4,1.1,13.1,13.1,0,0,1-3.1.6h-.9l-3.2-.3a13.9,13.9,0,0,1-6.2-2.7,10.7,10.7,0,0,1-2.3-2,12.8,12.8,0,0,1-1.9-3,13.8,13.8,0,0,1-1.4-3.9A19.8,19.8,0,0,1,74.8,363.2Z"/><path class="cls-20" d="M111.2,360.7v-.6a48.9,48.9,0,0,1,.5-6.6,10.6,10.6,0,0,1,1.9-4.4,7.6,7.6,0,0,1,5.8-2.8h.5a5.6,5.6,0,0,1,3.1.9,6.2,6.2,0,0,1,2.2,2.1,6.9,6.9,0,0,1,1,4.1v3.9c0,.3-.1.6-.1.8a16.6,16.6,0,0,0,.2,2.4,6.5,6.5,0,0,0,.5,2.2,1.4,1.4,0,0,0,1.2.8,1.4,1.4,0,0,0,1.3-.8,10.3,10.3,0,0,0,.5-2.2,17.7,17.7,0,0,0,.1-2.4v-.8c0-1.2,0-2.5-.1-3.9v-.4a11.1,11.1,0,0,1,.2-1.9,4.9,4.9,0,0,1,.8-1.8,4,4,0,0,1,1-1.2,4.2,4.2,0,0,1,1.2-.8,7.4,7.4,0,0,1,3.4-.7h.7a6.3,6.3,0,0,1,3.2.7,6.2,6.2,0,0,1,2.3,1.8,7,7,0,0,1,1.4,2.7,34.4,34.4,0,0,1,.9,6.9v.4a44.4,44.4,0,0,1-.3,5.5c-.3,2-.7,3.9-1.1,5.7a18.1,18.1,0,0,1-3,5.2,16.6,16.6,0,0,1-1.9,1.8A11.3,11.3,0,0,1,136,379a15,15,0,0,1-3.4,1.2,17.3,17.3,0,0,1-4.1.4,19.4,19.4,0,0,1-3.6-.3l-3.1-.8a13.3,13.3,0,0,1-2.4-1.1l-1.9-1.2a12,12,0,0,1-3.1-3.3,18.7,18.7,0,0,1-1.5-3.2,33.7,33.7,0,0,1-1-3.4c-.2-1.1-.4-2.3-.5-3.4S111.2,361.7,111.2,360.7Z"/><path class="cls-20" d="M147.8,367c0-1-.1-1.9-.1-2.8a26.9,26.9,0,0,1,.2-3.1,27.3,27.3,0,0,1,1-5.4,12.6,12.6,0,0,1,1.3-3.3,16.4,16.4,0,0,1,1.9-2.5l2.3-1.7,2.3-1a15.7,15.7,0,0,1,4.9-.8h.8a14.8,14.8,0,0,1,3.8.4,12.4,12.4,0,0,1,2.9,1A9.4,9.4,0,0,1,173,351a10.7,10.7,0,0,1,2.2,4.4,14.1,14.1,0,0,1,.3,2.8,8.8,8.8,0,0,1-.2,1.7,13.1,13.1,0,0,1-.8,3.4,10.8,10.8,0,0,1-1.6,2.8,17.5,17.5,0,0,1,2.7,2.8,9.7,9.7,0,0,1,1.5,2.5,6.9,6.9,0,0,1,.5,2.4,7.8,7.8,0,0,1-.2,1.6,6.4,6.4,0,0,1-2.3,3.6,7.4,7.4,0,0,1-2.6,1.4h-1.2l-1.2-.2a5.1,5.1,0,0,1-2.2-1.1,9.8,9.8,0,0,1-1.8-1.7,21.3,21.3,0,0,1-3.7-6,18.3,18.3,0,0,1,.2,2.1v.7a11.8,11.8,0,0,1-.4,2,8.3,8.3,0,0,1-.9,1.6,3.2,3.2,0,0,1-1,1,5.4,5.4,0,0,1-3.1,1.3H156a5.4,5.4,0,0,1-2.7-.6,7.4,7.4,0,0,1-2.5-2,10.1,10.1,0,0,1-1.6-3.1A33.3,33.3,0,0,1,147.8,367Zm13.3-5a2,2,0,0,0,1.3.4,2.2,2.2,0,0,0,1.4-.5,1.7,1.7,0,0,0,.5-1.3,2.1,2.1,0,0,0-.5-1.3,1.7,1.7,0,0,0-1.4-.6,2,2,0,0,0-1.4.6,1.6,1.6,0,0,0-.5,1.1A1.8,1.8,0,0,0,161.1,362Z"/><text class="cls-21" transform="translate(850.3 176.2)">MENYS<tspan x="-22.3" y="62.4">COTXES!</tspan></text></g></g></svg>